<?xml version="1.0" encoding="utf-8"?>
<!-- Generator: Adobe Illustrator 27.5.0, SVG Export Plug-In . SVG Version: 6.00 Build 0)  -->
<svg version="1.1" id="flash" xmlns="http://www.w3.org/2000/svg" xmlns:xlink="http://www.w3.org/1999/xlink" x="0px" y="0px"
	 viewBox="0 0 179 63" style="enable-background:new 0 0 179 63;" xml:space="preserve">
<style type="text/css">
	.st0{fill:#15245D;}
</style>
<path class="st0" d="M87.3,32.3c0.4-1.1,1-2.5,0.3-3.6c-0.4-0.6-1.1-0.9-1.8-0.9c-1.5,0-3.7,1.5-4.8,2.4c-2.5,2.1-4.4,4.9-5.7,7.9
	c-1.2,2.9-3.3,8.5-1.8,11.6c0.5,1,1.3,1.7,2.5,1.9c2.8,0.5,4.7-1.8,5.6-4.1C84.2,40.5,87.3,32.3,87.3,32.3 M79,56.3
	c-0.2,0.2-0.4,0.4-0.7,0.6c-2.8,2.6-6.6,4-10.3,4c-3.7,0-7.1-1.7-9-4.9c-0.1-0.2-0.2-0.3-0.3-0.5c-0.2,0.1-0.3,0.3-0.5,0.4
	c-0.4,0.3-0.7,0.6-1.1,1c-0.8,0.6-1.7,1.2-2.6,1.7c-3,1.6-6.4,2.3-9.7,2.3c-2.7,0-4.9-1.2-6.4-3.4c-1.1-1.7-1.2-3.7-1-5.7
	c0.2-1.3,0.6-2.6,1.1-3.9c2.4-6.6,4.9-13.1,7.4-19.6c2.7-7.1,5.5-14.2,8.2-21.4c0.2-0.4,0.3-1.2,0-1.6c-0.4-0.6-1-0.7-1.6-0.8
	L52,4.5l0.6-1.7h18l-16,42.3c-0.2,0.5-0.4,1-0.4,1.5c-0.1,0.6-0.1,1.4,0.2,2c0.4,0.7,1.1,0.9,1.9,0.9c0.2,0,0.5,0,0.8-0.1
	c0-0.3,0-0.5,0-0.8c0-0.7,0.2-1.6,0.3-2.3c0.3-1.5,0.7-3,1.2-4.5c1.5-4.4,3.8-8.6,6.9-12.1c2.7-3.1,6-5.7,9.8-7.1
	c1.4-0.5,3.3-1.1,4.8-1.1c0.4,0,0.8,0,1.2,0c0.8,0,1.7,0.1,2.5,0.3c2.3,0.5,4.2,1.8,5.1,4l0.4,0.9l1.6-4.2h15l-0.2,0.6
	c-1.4,3.8-2.8,7.5-4.3,11.3c-1.4,3.7-2.8,7.3-4.2,11c-0.2,0.4-0.3,0.9-0.4,1.3c-0.1,0.5-0.1,1.1,0.2,1.6c0.5,0.8,1.7,0.9,2.6,0.9h12
	c1.6,0,2.8-0.4,3.5-1.9c1-1.9-0.2-3.3-1.5-4.7c-0.5-0.5-1-1-1.5-1.5c-0.8-0.9-1.7-1.8-2.5-2.7c-0.9-1.1-2-2.4-2.6-3.6
	c-1.3-2.8-1.3-5.7,0.3-8.3c0.6-1,1.4-1.9,2.4-2.5c2.4-1.5,6.2-1.4,9-1.4h25.5l6-15.8c0.2-0.4,0.3-1.2,0-1.6c-0.4-0.6-1-0.7-1.7-0.8
	l-0.5-0.1l0.6-1.7h18.1l-7.5,20H172c2.1,0,5,0.6,6.2,2.5c1,1.6,1,3.8,0.4,5.6c-1.3,3.6-2.7,7.1-4,10.6c-0.9,2.4-1.9,4.9-2.8,7.3
	c-0.3,0.8-0.6,1.7-0.9,2.5c-0.1,0.3-0.3,0.7-0.4,1.1c-0.4,1.2-0.8,2.9-0.2,4c0.5,0.9,1.5,1.5,2.6,1.7c1.1,0.2,2.3,0.3,3.4,0.3h0.6
	l-0.6,1.8h-13.6c-2.2,0-5.6-0.3-6.9-2.4c-1.3-2.2-0.3-5.4,0.6-7.6c1.2-3,2.4-6.1,3.5-9.2c1.2-3.2,2.4-6.3,3.6-9.5
	c0.4-1.2,1-2.6,0.3-3.8c-0.4-0.7-1.4-0.9-2.2-0.9h-3.8L145.1,60h-15l12.6-33.3h-16.5c-1.4,0-2.6,0.5-3.3,1.8
	c-0.7,1.3-0.2,2.6,0.7,3.7c0.5,0.6,1.1,1.2,1.7,1.8c0.9,0.9,1.7,1.7,2.6,2.6c1.1,1.2,2.4,2.7,3.1,4.1c2.3,4.7,0.6,10.3-2.7,14
	c-4,4.5-9.6,5.2-15.4,5.2H85.3c-2.4,0-4.9-0.9-6-3.1C79.2,56.6,79.1,56.4,79,56.3L79,56.3z M37.6,21.2h6L42.1,25h-6
	c-1.8,4.7-3.5,9.3-5.3,14c-1.1,2.9-2.2,5.9-3.4,8.8c-0.6,1.7-1.3,3.5-2,5.2c-1.8,4.5-4.4,7.9-9.7,7.9H0l0.6-1.7h0.3
	c4.8-0.2,8.8-4.2,10.5-8.4c1.6-4.1,3.2-8.2,4.7-12.3c1.7-4.5,3.4-9,5.1-13.5h-7.6l1.5-3.8h7.6l4.2-11.1c1.7-4.4,5.2-7.4,9.9-7.4
	h13.7l-0.7,1.8h-0.3c-1,0-2,0-3,0C44.2,4.6,43,7,42.2,9c-0.8,2.1-1.6,4.2-2.4,6.3C39.1,17.2,38.3,19.2,37.6,21.2L37.6,21.2z"/>
</svg>
