<svg width="120" height="28" viewBox="0 0 120 28" fill="none" xmlns="http://www.w3.org/2000/svg">
<g clip-path="url(#clip0_9907_6750)">
<path d="M20.8311 7.64014C13.6992 7.64014 7.78613 13.1696 7.37988 20.2111C7.37988 20.3917 7.42502 20.5497 7.56044 20.6851C7.67328 20.8205 7.85383 20.8882 8.03439 20.8882H12.7965C13.135 20.8882 13.4058 20.6399 13.451 20.2788C13.8121 16.4872 16.9943 13.621 20.8536 13.621C24.713 13.621 27.8952 16.4872 28.2563 20.2788C28.2789 20.6174 28.5723 20.8882 28.9108 20.8882H33.6503C33.8309 20.8882 34.0114 20.8205 34.1243 20.6851C34.2371 20.5497 34.3048 20.3917 34.3048 20.2111C33.876 13.147 27.9629 7.64014 20.8311 7.64014Z" fill="#1C2E51"/>
<path d="M20.8311 14.9297C17.4683 14.9297 14.7148 17.638 14.7148 20.9782C14.7148 24.3184 17.4683 27.0267 20.8311 27.0267C24.1939 27.0267 26.9473 24.3184 26.9473 20.9782C26.9473 17.638 24.1939 14.9297 20.8311 14.9297Z" fill="#1C2E51"/>
<path d="M20.8312 0.350098C15.4146 0.350098 10.2688 2.40389 6.36438 6.12779C2.48249 9.8517 0.225583 14.8395 0.0224609 20.1884C0.0224609 20.3689 0.0901683 20.5269 0.203014 20.6623C0.338429 20.7977 0.496412 20.8654 0.676965 20.8654H5.39391C5.73245 20.8654 6.02585 20.5946 6.04841 20.2561C6.43209 12.4246 12.9094 6.30834 20.8312 6.30834C28.7304 6.30834 35.2303 12.4246 35.614 20.2561C35.6365 20.5946 35.9074 20.8654 36.2685 20.8654H40.9854C41.166 20.8654 41.3239 20.7977 41.4594 20.6623C41.5948 20.5269 41.6399 20.3689 41.6399 20.1884C41.4368 14.8395 39.1799 9.8517 35.298 6.12779C31.3935 2.42646 26.2478 0.350098 20.8312 0.350098Z" fill="#1C2E51"/>
<path d="M66.1498 2.96826H60.7332C60.6429 2.96826 60.5752 3.0134 60.5752 3.10368L57.1898 16.284H57.1447L53.8722 3.10368C53.8496 3.03597 53.7819 2.96826 53.7142 2.96826H48.0719C47.9816 2.96826 47.9139 3.03597 47.8914 3.12625L46.7178 20.527C46.7178 20.5722 46.7403 20.6173 46.7629 20.6624C46.7855 20.7076 46.8532 20.7076 46.8983 20.7076H49.8323C49.9226 20.7076 49.9903 20.6399 50.0129 20.5496L50.8705 6.06023H50.8931L54.7524 20.5947C54.775 20.6624 54.8427 20.7302 54.9104 20.7302H58.9502C59.0179 20.7302 59.0856 20.685 59.1082 20.5947L63.103 6.06023H63.1255L63.7575 20.5496C63.7575 20.6399 63.8477 20.7076 63.938 20.7076H67.3459C67.3911 20.7076 67.4362 20.685 67.4814 20.6624C67.5039 20.6173 67.5265 20.5722 67.5265 20.527L66.3529 3.12625C66.3303 3.03597 66.2401 2.96826 66.1498 2.96826Z" fill="#1C2E51"/>
<path d="M74.8847 7.0532C73.4854 7.0532 71.3413 7.27889 70.2129 7.52715C70.1452 7.54972 70.0775 7.61742 70.0775 7.68513V10.1452C70.0775 10.1903 70.1 10.2354 70.1452 10.2806C70.1903 10.3031 70.2354 10.3257 70.2806 10.3031C71.0705 10.1226 72.876 9.8292 74.6816 9.8292C77.6833 9.8292 77.7735 10.5514 77.7735 12.4472H77.5027C74.7944 12.4472 71.725 12.4472 70.1677 13.9819C69.5132 14.6139 69.1973 15.494 69.1973 16.5774C69.1973 20.369 72.199 20.9332 75.4489 20.9783C75.7423 20.9783 76.0357 21.0009 76.3291 21.0009C77.8412 21.0009 79.4211 20.8881 81.5426 20.6624C81.6329 20.6624 81.7006 20.5721 81.7006 20.4818V11.567C81.7006 10.2354 81.3169 9.19726 80.5721 8.47505C79.2631 7.18861 77.0739 7.03063 74.8847 7.0532ZM77.7735 15.0652V18.2475C77.0965 18.3378 76.5322 18.3829 75.8777 18.3829C74.343 18.3829 73.2597 18.27 73.2597 16.7128C73.2597 15.1555 74.343 15.0427 75.8777 15.0427C76.8031 15.0427 77.435 15.0427 77.7735 15.0652Z" fill="#1C2E51"/>
<path d="M94.8359 17.8639L94.6102 17.8865C93.9783 17.9768 93.3689 18.0445 92.3307 18.0445C88.9002 18.0445 87.5009 16.8483 87.5009 13.9369C87.5009 11.0481 88.8551 9.89704 92.3307 9.89704C93.1206 9.89704 93.7977 9.96475 94.7456 10.0776C94.7907 10.0776 94.8359 10.0776 94.881 10.0325C94.9262 10.0099 94.9487 9.96475 94.9487 9.89704V7.57242C94.9487 7.48214 94.9036 7.41444 94.8133 7.41444C93.6849 7.16618 92.3984 7.03076 90.954 7.03076C85.7631 7.03076 83.4385 10.4161 83.4385 13.7564C83.4385 18.2702 86.3048 20.9559 91.112 20.9559C92.5564 20.9559 93.7526 20.8205 94.9262 20.5271C94.9939 20.5045 95.0616 20.4368 95.0616 20.3691V17.9994C95.0616 17.9542 95.039 17.9091 94.9939 17.8639C94.9262 17.8639 94.881 17.8639 94.8359 17.8639Z" fill="#1C2E51"/>
<path d="M105.646 7.39152C105.646 7.30124 105.578 7.21097 105.465 7.21097H105.24C104.066 7.21097 102.622 7.1884 100.5 8.38456V7.4818C100.5 7.39152 100.433 7.30124 100.32 7.30124H97.16C97.0698 7.30124 96.9795 7.36895 96.9795 7.4818V20.5493C96.9795 20.6396 97.0472 20.7299 97.16 20.7299H100.726C100.816 20.7299 100.907 20.6622 100.907 20.5493V11.2283C102.08 10.4609 103.998 10.4609 105.285 10.4609H105.488C105.578 10.4609 105.669 10.3932 105.669 10.2804L105.646 7.39152Z" fill="#1C2E51"/>
<path d="M112.823 7.03076C108.376 7.03076 105.623 9.71649 105.623 14.0046C105.623 18.3153 108.376 20.9785 112.823 20.9785C117.02 20.9785 119.977 18.1122 119.977 14.0046C119.977 9.69392 117.224 7.03076 112.823 7.03076ZM115.915 14.0498C115.915 17.0289 115.012 18.2476 112.8 18.2476C110.566 18.2476 109.663 17.0289 109.663 14.0498C109.663 11.0481 110.566 9.82933 112.8 9.82933C115.012 9.82933 115.915 11.0481 115.915 14.0498Z" fill="#1C2E51"/>
</g>
<defs>
<clipPath id="clip0_9907_6750">
<rect width="120" height="26.6993" fill="white" transform="translate(0 0.350098)"/>
</clipPath>
</defs>
</svg>
