<?xml version="1.0" encoding="utf-8"?>
<!-- Generator: Adobe Illustrator 16.0.0, SVG Export Plug-In . SVG Version: 6.00 Build 0)  -->
<!DOCTYPE svg PUBLIC "-//W3C//DTD SVG 1.1//EN" "http://www.w3.org/Graphics/SVG/1.1/DTD/svg11.dtd">
<svg version="1.1" id="Capa_1" xmlns="http://www.w3.org/2000/svg" xmlns:xlink="http://www.w3.org/1999/xlink" x="0px" y="0px"
	 width="500px" height="420px" viewBox="0 0 500 420" enable-background="new 0 0 500 420" xml:space="preserve">
<polygon fill-rule="evenodd" clip-rule="evenodd" fill="#003F71" points="0,1 500,1 250.016,417.668 "/>
<path fill-rule="evenodd" clip-rule="evenodd" fill="#FCCF00" d="M191.441,63.234l0.315,0.109l0.06,0.1l0.008,0.125l-0.095,0.275
	l-0.219,0.326l-0.985,1.141l2.552-0.14l1.419,0.079l0.621,0.144l0.504,0.256l0.037,0.084l0.029,0.17l-0.056,0.454l-0.117,0.648
	l1.865-0.046l0.943,0.011l0.938,0.14l1.232,0.408l1.226,0.555l1.005,0.748l0.349,0.457l0.193,0.501l5.056,2.665l3.892,3.5
	l0.704,0.455l0.375,0.213l0.295,0.279l0.406,0.69l0.278,0.785l0.225,1.696l0.077,3.829l6.382,1.821l2.9,1.763l7.034,2.767
	l0.593,0.437l0.562,0.535l0.568,0.538l0.586,0.436l2.694,0.58l3.119,0.438l6.706,3.136l3.62,2.75l3.286,3.062l3.099,2.22
	l0.405,0.589l0.197,0.328l0.179,0.2l0.709,0.334l0.661,0.218l0.636,0.243l0.596,0.357l0.561,0.613l0.464,0.721l1.008,1.397
	l4.224,4.507l3.476,4.779l0.635,1.467l0.34,0.704l0.487,0.596l5.44,5.238l2.396,2.975l1.748,3.117l0.965,3.216l0.678,1.007
	l0.879,0.919l1.841,1.738l1.96,3.193l1.618,3.43l0.116,0.979l-0.033,0.963l-0.059,0.971l0.117,1.013l0.269,0.737l0.386,0.731
	l0.324,0.802l0.154,0.855l-0.154,1.133l-0.324,1.012l-0.47,0.893l-0.612,0.781l-2.833,2.119l-0.484,0.085l-0.199,0.031l-0.197,0.138
	l-0.422,0.626l-0.303,0.661l-0.3,0.644l-0.407,0.612l-3.697,3.579l-4.259,2.962l-9.555,4.329l0.34,9.119l-1.697,5.646l-2.301,5.227
	l-0.315,1.156l-0.138,1.329l-0.016,2.943l-0.131,5.889l2.496,0.504l1.02,0.34l0.867,0.466l0.768,0.571l0.623,0.709l0.524,0.874
	l0.422,1.049l0.583,3.747l0.157,3.926l6.807,1.434l5.441,2.66l0.953,0.93l0.952,0.955l2.747,1.854l0.827,1.164l0.422,0.626
	l0.444,0.469l0.747,0.437l0.795,0.266l1.715,0.571l5.059,2.972l4.558,1.075l12.022,3.087l1.007,0.169l0.765-0.188l0.606-0.353
	l0.656-0.339l3.584-0.637l1.915,0.346l1.923,0.902l0.365,0.351l0.279,0.508l0.426,1l0.327,0.622l0.296,0.607l0.841,4.104
	l-0.658,5.144l-0.848,1.765l-0.414,0.983l-0.077,1.048l0.193,0.942l0.395,0.998l0.686,1.906l0.277,3.5l0.571,3.324l1.475,2.681
	l0.623,1.444l0.172,0.82l0.072,0.915l-0.347,2.716l-0.801,1.302l-1.262,1.162l-1.451,0.881l-0.748,0.268l-0.712,0.127l-1.584-0.055
	l-0.695,0.044l-0.681,0.2l-0.666,0.551l-0.656,0.599l-4.022,1.523l-2.68-0.647l-1.646-0.583l-0.57-0.293l-0.254-0.217l-0.115-0.607
	l0.042-0.599l-0.055-0.521l-0.115-0.244l-0.199-0.2l-0.395-0.192l-0.413-0.093l-0.405-0.067l-0.357-0.2l-0.215-0.255l-0.182-0.424
	l-0.327-1.099l-0.168-1.207l0.04-0.938l0.242-0.615l0.395-0.507l1.063-0.803l1.194-0.625l1.02-0.674l0.626-0.6l0.254-0.46
	l0.096-0.559l-0.085-0.991l-0.223-0.932l-0.754-1.764l-1.759-3.23l-0.182-0.824l-0.24-0.782l-0.571-0.703l-0.693-0.63l-0.736-0.649
	l-0.598-0.711l-0.596-1.354l-0.382-0.689l-0.229-0.262l-0.31-0.175l-5.217-1.215l-14.577-2.68l-4.497-1.057l-4.522-0.816
	l-3.022,0.58h-7.115l-0.266,0.909l-0.182,1.147l-0.219,1.183l-0.385,1.044l-0.264,0.369l-0.359,0.2l-0.88,0.038l-0.988-0.152
	l-1.065,0.032l-0.514,0.24l-0.479,0.415l-0.509,0.393l-0.534,0.274l-0.783-0.063l-0.885-0.104l-2.844,1.184l-0.4,0.352l-0.375,0.511
	l-0.371,0.51l-0.392,0.316l-3.522,0.216l-0.227-0.138l-0.15-0.169l-0.258-0.396l-0.311-0.353l-0.232-0.074l-0.302,0.027l-0.513,0.18
	l-0.554,0.329l-1.178,0.866l-2.431,1.428l-3.523,0.029l-3.568-1.016l-0.826-0.793l-0.45-0.437l-0.395-0.293l-1.421-0.553
	l-0.486-0.268l-0.513-0.458l-0.723-0.94l-0.541-1.036l-0.737-2.283l-1.293-4.821l-2.456-5.042l-1.971-5.494l-0.446-5.382l0.124-1.51
	l0.046-0.711l-0.079-0.679l-1.861-4.18l-2.278-3.946l-5.579-15.055l-1.73-6.011l-1.494-14.485l0.545-8.688l-0.86-3.27l-1.187-3.359
	l0.052-4.949l0.578-4.984l-3.165-2.608l-2.068-3.328l-0.224-0.868l-0.104-0.419l-0.211-0.347l-0.363-0.25l-0.417-0.145l-0.9-0.328
	l-2.307-2.761l-0.877-1.789l-0.474-0.927l-0.568-0.705l-0.724-0.432l-0.907-0.259l-1.921-0.486l-5.72-3.095l-5.841-4.694
	l-5.415-5.094l-3.485-2.035l-3.937-1.774l-0.542-0.494l-0.452-0.733l-0.317-0.849l-0.134-0.825l-3.936-3.057l-3.246-3.653
	l-0.55-0.886l-0.33-0.45l-0.36-0.272l-0.388-0.054l-0.435,0.025l-0.984,0.253l-0.993,0.328l-0.823,0.213l-6.004-0.103l-5.985,0.071
	l-0.8,0.244l-0.801,0.413l-0.817,0.435l-0.751,0.314l-6.577,0.931l-4.173-0.043l-1.3-0.208l-1.256-0.349l-1.208-0.261l-1.113-0.031
	l-0.267,0.116l-0.228,0.153l-0.221,0.188l-0.227,0.084l-0.937-0.042l-0.912-0.212l-0.908-0.213l-0.907-0.042l-0.44,0.151
	l-0.42,0.292l-0.417,0.316l-0.424,0.187l-5.694,0.348l-6.282-1.205l-2.812-1.283l-2.378-1.719l-0.845-1.138l-0.394-0.603
	l-0.463-0.508l-0.617-0.353l-0.672-0.248l-1.419-0.57l-0.815-0.602l-0.782-0.739l-0.777-0.716l-0.801-0.581l-0.477-0.172
	l-0.505-0.061l-1.183-0.145l-4.388-2.037l-2.72-2.393l-2.54-2.564l-3.687-2.737l-0.878-1.183l-0.428-0.626l-0.543-0.484
	l-2.802-1.469l-5-4.077l-1.282-0.605l-1.309-0.541l-3.462-3.27l-2.074-2.451l-0.271-0.818l-0.093-0.806l0.058-0.73l0.227-0.618
	l0.389-0.467l0.533-0.255l0.7,0.021l0.852,0.332l2.886,1.763l0.985,0.116l0.495,0.081l0.428,0.136l2.615,2.542l1.429,0.632
	l1.555,0.594l2.596,1.152l-0.083-1.103l-0.292-0.955l-0.442-0.867l-0.565-0.763L71.51,76.87l-0.623-0.843l-0.506-0.94l-1.027-1.806
	l-0.392-0.366l-0.43-0.292l-0.915-0.616l-1.724-2.357l-1.14-2.76l-0.037-0.708l0.102-0.679l0.543-1.3l0.732-0.83l0.343-0.188
	l0.375-0.091l0.359,0.029l0.347,0.145l0.716,0.505l2.55,2.917l3.17,2.658l0.474,0.703l0.401,0.801l0.424,0.8l0.546,0.667
	l0.593,0.413l0.637,0.285l1.455,0.613l0.583,0.462l0.397,0.582l0.715,1.2l2.597,2.189l0.799,0.401l0.335,0.073l0.276-0.031
	l0.211-0.143l0.104-0.288l0.029-0.43l-0.091-0.606l-0.375-1.311l-0.51-1.019l-1.262-1.602l-2.759-3.058l-0.823-1.935l-0.43-1
	l-0.618-0.74l-0.588-0.387l-0.642-0.268l-1.32-0.646l-0.726-0.642l-0.692-0.825l-1.08-1.741l-0.757-1.714l-0.15-1.021l0.191-1.158
	l0.353-0.679l0.421-0.408l1.176-0.535l0.41-0.329l0.412-0.361l2.915,3.3l0.787,0.496l0.829,0.365l1.701,0.861l0.739,0.714
	l0.61,0.922l0.604,0.946l0.658,0.777l4.82,5.168l3.274,4.354l0.577,0.656l0.311,0.197l0.284-0.018l0.234-0.221l0.218-0.37
	l0.334-1.117l0.191-1.431l0.022-3.033l-0.178-1.142l-0.157-0.387l-0.169-0.243l0.035-0.127l-0.193-0.601l-0.029-0.544l-0.269-0.894
	l-0.026-3.761l-0.329-0.782l-0.396-0.728l-0.007-0.249v-0.112l-0.042-0.101h-0.157l-0.143-0.729l0.036-0.969l0.107-1.287
	l0.171-0.636l0.29-0.492l0.355-0.256l0.461-0.146l1.082-0.102l1.052,0.057l0.738,0.277l0.511,0.449l0.353,0.626l0.882,3.117
	l0.253,0.419l0.346,0.394l0.631,0.807l0.271,1.043l0.018,1.14l0.038,2.323l0.253,0.85l0.411,0.857l0.422,0.859l0.26,0.887
	l0.078,3.931l0.112,3.749l0.306,0.862l0.575,0.873l1.183,1.577l0.852,1.652l0.539,0.849l0.284,0.308l0.311,0.196l0.659,0.114
	l0.73-0.085l0.745-0.287l0.74-0.417l1.242-1.044l0.445-0.563l0.239-0.517l0.355-1.493l0.2-0.727l0.382-0.667l0.844-0.766
	l1.187-0.716l2.326-1.105l0.95-0.228l0.996,0.083l1.871,0.666l1.14,0.499l0.888,0.57l-0.17,1.043l-0.172,0.978l-0.454,0.677
	l-0.686,0.591l-1.367,1.077l-2.066,2.981l-2.358,2.791l-1.129,1.741l-0.255,0.77l-0.021,0.334l0.078,0.276l0.186,0.172l0.17,0.169
	l3.992-0.399l2.27,0.036l1.128,0.225l1.077,0.376l0.772,0.502l0.893,0.704l1.021,0.607l0.559,0.193l0.57,0.062l0.785-0.193
	l0.877-0.403l1.662-0.763l12.665-3.918l6.653-0.518l2.353,0.457l1.135,0.195l1.134,0.034l3.232-1.807l3.595-2.153l7.331-2.057
	l1.468-0.016l0.686-0.008l0.667-0.17l2.643-3.179l0.257-1.011l0.083-1.106l0.095-1.125l0.331-1.075l0.292-0.26l0.416-0.166
	l0.818-0.291l0.786-0.813l0.75-0.86l4.986-2.887l1.027-0.911l0.52-0.473l0.55-0.341l5.381-1.272l1.646-0.6l0.911-0.292
	L191.441,63.234 M66.752,64.895l-0.854,1.457c0,0,2.613,3.362,2.591,4.246c0,0,0.673,0.403,1.565,0.262
	c0.9-0.14,0.859,1.752,0.859,1.752s1.872,2.5,2.065,3.119l1.903,0.632c0,0,1.195,3.251,2.703,4.525
	c1.527,1.286,1.56,2.608,1.56,2.608l-0.153,0.988c0,0-0.763,0.175-1.024,0.831c-0.27,0.685-0.857,1.592-1.681,1.298
	c-0.805-0.273-1.112-1.067-1.799-1.322c-0.675-0.261-0.903-0.592-1.476-0.692c-0.563-0.102-1.559-1.886-4.585-2.844l-1.766-1.475
	c0,0-1.271-1.079-1.972-1.218c-0.709-0.117-1.199-0.638-1.729-0.887c-0.541-0.225-1.849-0.176-1.849-0.176s0.48,0.508,0.665,1.143
	c0.181,0.599,1.101,1.205,1.439,1.697c0.353,0.497,1.523,1.278,1.523,1.278l1.921,0.639l0.275,0.907c0,0,1.914,1.509,2.207,2.283
	c0,0,1.863,0.918,2.889,0.947c1.009,0.042,0.103,1.03,0.103,1.03s1.419,1.846,3.067,1.549c0,0,0.901-1.984,1.439,0.85
	c0,0,1.093,1.352,1.724,1.885c0.627,0.558,1.623,1.457,2.381,1.297c0,0,0.738-0.884,0.95-1.285c0.212-0.388,0.985-0.703,0.985-0.703
	s0.377,0.365,0.917,0.606c0,0-1.822,1.275-0.793,2.901c1.019,1.637,1.698,2.632,1.698,2.632s0.79-0.305,1.499,0.698l1.494,0.55
	c0,0-0.138,1.567,2.504,2.181c0,0,0.141-0.699,1.382-0.342c1.24,0.371,3.03,0.972,3.147-0.61c0.148-1.555-0.688-0.971-0.688-0.971
	S92.41,98.031,92,97.045c-0.412-0.987,0.637-0.794,0.912-0.422c0.257,0.388,0.435,1.729,2.363,1.905c0,0,0.368,0.81,0.716,0.69
	c0,0-0.46,1.25,0.639,1.123c1.082-0.151,0.847-1.098-0.241-1.45c0,0-1.837-1.727-1.159-2.353c0,0,0.528-0.165,0.726,0.541
	c0.212,0.697,0.821,1.381,1.303,1.06c0.469-0.327-0.644-1.02-0.644-1.02s-0.25-0.466,0.042-0.746
	c0.295-0.259,1.122,0.706,1.122,0.706s1.183,1.195,1.821,1.79c0.646,0.619,2.602,1.212,3.184,0.739c0,0-2.609,0.292-4.543-3.276
	c0,0-0.335-0.896,0.643-0.388c0,0,1.943,3.483,4.834,2.5c0,0-3.636-0.388-4.268-2.899c0,0-0.013-0.905,0.836-0.013
	c0,0,2.127,3.338,5.504,1.548c0,0,1.034-0.734-0.573-0.511c0,0-2.406,1.475-4.219-1.812c0,0-0.249-0.965,0.566-0.399
	c0,0,1.872,2.971,4.204,0.981c0,0-2.447,0.721-3.313-1.407c0,0-0.119-0.771,0.646-0.377c0,0,0.428,1.797,3.098,0.717
	c0,0-1.528-0.202-1.985-1.438c0,0-0.334-0.879,0.577-0.47c0,0,0.992,2.402,4.074-0.107c0,0-2.271,1.164-3.083-0.803
	c0,0-0.504-0.91,0.248-0.945c0,0,0.483,1.007,1.46,1.08c0.976,0.095,2.396-1.384,2.396-1.384l-1.298,0.339
	c0,0-0.917-0.404-0.096-0.836c0.804-0.425,1.424-0.576,1.424-0.576l0.14-0.799c0,0-0.823,0.841-1.171-0.039
	c-0.324-0.879,1.711-0.278,1.63-1.68c0,0-0.992,0.479-1.069-0.45c-0.1-0.932,1.679-1.194,2.464-0.906l0.712-0.263
	c0,0-0.979-0.583-1.36-1.231c-0.37-0.657,0.375-1.177,0.671-1.049c0.313,0.14,0.683,0.462,1.151,0.128
	c0.461-0.328,1.204-1.275,1.628-2.281c0.421-0.989,2.743-1.086,3.391-2.862c0.638-1.786-0.057-2.482-1.22-2.441
	c-1.151,0.039-5.552,0.588-6.431,6.061c0,0,0,0.965-0.488,0.965c-0.504,0-0.539-0.74-0.539-0.74s-1.404,0.904-2.597,1.115
	c-1.185,0.195-2.083,2.008-3.828,1.626c-1.751-0.388-1.951-2.074-1.951-2.074s-2.359-0.667-3.668-0.231
	c-1.32,0.417-2.694,0.766-2.746,0.097c-0.05-0.679,0.805-1.262,1.728-0.935c0.943,0.328,2.582-1.03,3.864-0.813
	c1.287,0.218,2.003,0.85,2.003,0.85l-3.54-3.848c0,0,0.732-0.44,0.725-0.853c-0.009-0.406-0.546-1.996-0.57-2.409
	c-0.013-0.426,0.024-2.901,0-4.212c-0.013-1.334-0.024-3.141-0.806-4.781c-0.786-1.611-0.006-2.29-0.448-3.614
	c-0.424-1.309-1.986-2.729-2.035-5.302c-0.037-2.573-2.836-0.351-2.168,2.573c0.616,2.922,2.052,2.838,2.052,2.838l-0.946,0.662
	c0,0-0.198,2.528,0.208,3.499c0.416,0.983,1.633,2.937,1.633,2.937l-0.906,0.896c0,0-0.809,4.574-0.647,5.601
	c0.149,1.012-0.397,0.347-0.397,0.347l-0.331,0.927c0,0-2.156,0.45-3.772-0.577c-1.633-1.036,0.508-1.066,0.508-1.066l-0.147-0.521
	c0,0-2.126-2.446-3.67-3.531c-1.541-1.105,0.679-1.945-2.39-3.804c-3.064-1.863-0.627-1.109-3.165-2.702c0,0-0.07-1.427-0.968-1.999
	c-0.889-0.563-1.319-0.401-1.319-0.401s-3.236-2.298-4.105-3.445c-0.874-1.141-2.298-1.061-1.52,1.552
	c0.783,2.615,2.81,3.804,4.383,4.236v0.922c0,0,1.41,1.315,2.099,2.582c0.684,1.276,2.358,2.575,2.979,2.769
	c0.631,0.195,1.351-0.674,1.844,0.387c0,0-1.334,1.434,1.764,6.345l0.411,0.985l-0.765,0.194l0.005,0.836l-1.282,0.75l-1.673,0.038
	l-1.305,1.426c0,0-0.838-0.892-1.324-1.378c-0.499-0.516-0.24-1.96-1.596-2.687c-1.354-0.733-0.979-2.914-2.95-2.99
	c-1.966-0.104-3.141-4.271-5.94-6.089C67.325,66.461,67.574,63.454,66.752,64.895 M112.013,90.744c0,0,1.056,0.104-4.869,7.553
	c0,0-0.958,1.164-1.187,2.443c-0.211,1.274-2.078,1.525-2.183,2.592c-0.097,1.055-0.728,2.755,0.262,4.174
	c0.987,1.414,2.711,1.549,4.361,2.415c1.665,0.874,5.805,1.262,7.527-0.091c1.725-1.329,0-2.392,1.384-2.221
	c1.383,0.157,2.34,1.158,3.679-0.757c0,0-3.245-5.521-5.836-5.317c-2.592,0.196,0.217-2.196,2.399-2.395
	c2.177-0.175,4.07,0.886,5.53,0.066c1.459-0.825,1.786-2.73,2.369-2.132c0.543,0.581,0.246,0.859,0.425,1.301
	c0.169,0.458,0.006,1.331-0.759,2.355c-0.759,1.012-1.271,2.5-1.198,3.086c0.058,0.591,1.743,0.377,1.743,0.377
	s-1.914,4.382-1.781,4.982c0.155,0.601,0.986,0.915,0.986,0.915s0.135-1.709,0.638-1.705c0.504,0,1.07,3.817,7.68,3.745
	c6.621-0.086,2.126-1.701,11.989-3.345c0,0,3.041-1.362,0.893-5.113c0,0,0.934-0.183,1.636,0.521c0.711,0.705,2.71,1.058,3.32-0.57
	c0.637-1.62-0.197-4.985-3.265-7.256c0,0-1.721-1.467,0.869-1.175c2.587,0.296,3.188,3.948,4.537,6.175
	c1.339,2.22,4.984,4.087,4.984,4.087l0.069-0.896c0,0,3.181,7.661,8.387,8.156l-0.049-0.585c0,0-5.603-2.057-6.695-6.207
	c0,0,3.244,4.623,6.318,4.894v-0.823c0,0-4.09-0.715-5.09-5.338c0,0,3.076,4.078,4.9,3.991c0,0-1.314-4.769-2.014-6.296
	c-0.743-1.537,0.929-2.974,1.437-3.544c0.52-0.559-0.896-0.99,0.123-1.542c1.007-0.57,1.597,1.674,0.163,3.245
	c-1.437,1.559,0,2.81,0,2.81s1.817-3.724,2.147-6.155c0,0-2.912-0.026-1.914-2.647c0.45-1.243,1.014,0.275,1.014,0.275l0.751-0.037
	c0,0-0.085-1.421-0.813-1.47c-0.733-0.047-0.853,0.597-1.542-0.604c-0.7-1.191-1.062-3.314,1.526-4.929c0,0,0.498-0.994-1.293-0.636
	c-1.803,0.342-2.47-0.52,1.203-1.287l0.33-0.439c0,0-2.704-0.057-3.197,0.354c0,0,0.938-1.079,3.604-1.76
	c0,0-1.61-0.193-3.355,0.403c0,0,1.087-1.125,3.943-1.785c0,0-3.121-0.624-8.733,1.754c0,0-0.081,0.584,0.063,1.093
	c0.149,0.531-2.083-0.358-2.083-0.358l0.176,0.854l-1.056,0.395l-0.093,0.479c0,0-3.097,1.196,1.393,1.474l-1.47,0.394
	c0,0,6.528,5.122,8.161,8.059c0,0-10.231-8.992-13.45-8.059c0,0-3.461-1.356-3.611-0.061c0,0-2.72-1.467-2.701-0.229
	c0,0-4.118-1.382-3.463,0.05c0,0-4.388-0.844-3.427,0.727c0,0-1.943-0.255-3.274,0.25l0.219,0.684c0,0-1.646-0.031-3.036,0.388
	l0.277,0.777c0,0-3.46-0.109-3.911,1.553l1.126,1.018c0,0-1.094,0.218-1.879,0.912c0,0-8.457-4.458-10.741-4.709
	C114.317,89.828,112.013,90.744,112.013,90.744 M169.383,93.25c0.114-0.631,1.178-2.183,1.617-2.183
	c0.426,0.013,0.367,0.729,0.367,0.729s-0.361,0.452-1.019,1.707c-0.666,1.262,0.071,2.099,0.071,2.099
	c0.822,0.293,0.311,1.157-0.361,1.264c-0.675,0.096-0.759,0.594-0.979,1.347c-0.193,0.764-1.312,3.762-2.057,5.969
	c-0.751,2.184-0.596,2.558,0.383,3.185c0.991,0.595,1.327-0.066,1.865-0.627c0.53-0.563,0.852-1.223,1.872-0.823
	c1.233,0.474,1.589,0.491,1.864-0.258c0.291-0.761-0.651-1.562-0.078-1.972c0.588-0.41,1.54,1.15,1.774,1.464
	c0.225,0.336,0.913,0.888,0.51,1.182c-0.414,0.3-1.326,1.367-1.326,1.367s-0.521-0.739-0.88,0c-0.335,0.74-1.474,0.965-1.474,0.965
	s0.064-0.796-0.738-0.79c-0.793,0-1.838,0.989-2.566,1.015c-0.725,0.01-1.404,0.176-0.502,1.218
	c0.914,1.027-0.165,0.917,0.532,1.542c0.686,0.624,3.109,0.393,5.422,0.952c2.297,0.546,4.977,0.654,4.977,0.654
	c0.058-0.783-0.48-1.093,0.099-1.444c0.561-0.328,1.991,0.959,2.043,3.288c0.02,2.318-1.476,1.329-1.632,0.505
	c-0.142-0.844-1.034-1.06-2.502-1.401c-1.475-0.315-4.464-0.632-5.169-0.741c-0.709-0.138,0.072,0.728-0.668,1.324
	c-0.747,0.593-1.754-0.82-1.754-0.82s-1.136-0.12-0.173,0.995c0.967,1.099,2.356,1.505,3.746,1.449
	c1.388-0.035,2.793,0.28,2.625,1.209c-0.16,0.889-1.158,0.284-1.676,0.478c-1.277,0.463-2.141,0.146-2.906-0.076
	c-0.767-0.201-1.594-0.058-1.594-0.058c-0.536,2.6,2.389,2.974,2.389,2.974c-0.657-0.766,0.437-1.603,1.475-0.909
	c0,0,1.409,1.408,3.088,1.782c2.801,0.621,5.39-2.183,6.346-3.396c0.938-1.208,1.078-4.015,1.178-4.646
	c0.113-0.644,0.231-2.584-0.354-2.972c-0.59-0.402-1.5-0.918-2.207-1.482c-0.708-0.546-0.12-0.97,0.342-0.738
	c0.481,0.236,1.12,0.703,1.12,0.703c2.141,1.03,1.59,1.663,1.843,3.531c0.253,1.843,0.362,4.553,0.362,4.553
	c0.15-0.847,1.249-2.174,1.729-3.183c0.467-1.001-0.337-1.433,0.546-2.729c0.881-1.286,1.866-0.694,1.136,0.127
	c-0.717,0.812-0.425,2.032-0.237,2.565c0.207,0.544-0.283,1.698-0.283,1.698s4.703-0.77,7.19-2.889
	c2.47-2.096,3.02-7.661,3.02-7.661s0.192-0.698,0.674-0.592c0.489,0.08,0.597,0.678,0.597,0.678
	c-0.364,2.555-0.841,2.743,1.219,3.038c2.047,0.3,2.36-2.777,2.36-2.777c3.542-1.057,3.585-4.235,4.443-3.725
	c0.846,0.517-0.857,2.391-0.857,2.391c1.674-0.788,2.528-2.754,2.894-4.491c0.375-1.758,0.313-4.597-1.555-5.143
	c-1.867-0.545-6.207,4.707-6.207,4.707s-1.002,0.339-1.647,1.959c-0.65,1.632-1.205,1.463-2.026,1.549
	c-0.809,0.07-2.411-0.285-2.497-1.021c-0.089-0.752,0.54-1.806,0.155-2.524c-0.389-0.714-1.878-1.774-1.878-1.774
	c0.308-1.329-0.757-1.38-0.757-1.38c-0.186-1.102-1.384-0.814-1.384-0.814c-1.664,1.162-1.182,1.325-0.445,2.023
	c0.737,0.721,0.25,2.371,0.899,2.779c0.659,0.404,1.74,0.51,1.227,1.305c-0.501,0.788-0.669,0.024-1.076,0.018
	c-0.453,0-0.255,0.48-0.888,0.794c-0.645,0.333-0.857-1.245-0.57-1.686c0.286-0.473,0.26-1.123-0.082-1.979
	c-0.36-0.873-1.398-1.551-1.398-1.551c-1.834,0.846-1.431-0.112-2.079,0.192c-0.636,0.339-1.204,0.681-2.02,0.747
	c-0.82,0.08-0.706-0.916-0.706-0.916c-4.618,0.278-4.674-1.038-5.362-1.311c-0.681-0.269-2.26,0.037-2.707,0.1
	c-0.445,0.082-0.936,0.794-0.936,0.794c1.373-0.348,2.626,0.302,3.974,0.485c1.37,0.163,1.388,0.817,1.745,0.811
	c0.375-0.016,0.632-0.26,0.632-0.26c1.129,0.121,1.551,1.861,1.551,1.861c-0.468,0.284-1.849,1.941-2.452,2.42
	c-0.587,0.461-1.039-0.266-0.702-0.582c0.345-0.292,1.247-1.225,0.828-1.807c-0.405-0.575-2.401,0.098-3.145,0.181
	c-0.746,0.072-0.335-1.007-0.335-1.007c-0.821,0.147-1.808-0.895-1.808-0.895c-0.427,0.361-1.624,0.574-1.624,0.574
	c1.007,0.479,1.042,1.566,1.042,1.566s0.915,0.104,0.774,0.504c-0.15,0.413-0.15,0.413-0.823,0.581
	c-0.688,0.182-1.251-1.164-1.251-1.164s-0.572-0.098-0.992-0.608c-0.411-0.507-0.493-1.247-0.493-1.247s-0.364-0.062-1.038-0.275
	c-0.707-0.186-0.552-1.031,0.242-1.031c0,0-0.121-0.535-0.242-1.049c-0.117-0.545-0.111-1.466,0.397-2.341
	c0.525-0.849,1.022-2.427,0.98-2.652c-0.03-0.225-0.257-1.436-0.137-1.613c0.089-0.213,0.79-1.176,1.043-1.504
	c0.276-0.311,0.414-0.635,1.573-1.464c1.157-0.806,1.215,0.506,1.896-0.098c0.702-0.605,2.847-0.455,2.847-0.455
	c0.324-2.19,2.227-1.127,2.391-2.425c-2.905,0.557-5.677-1.861-5.677-1.861s-1.02,1.364-1.289,1.801
	c-0.258,0.43-1.104,0.775-1.022-0.188c0.056-0.947-0.818-1.99-1.08-2.705c-0.269-0.725-0.019-1.541-0.019-1.541
	c-2.537,1.182-4.758,8.351-4.54,8.781c0.214,0.426,0.569,0.73,0.569,0.73c-1.145,0.605-2.32,2.609-2.32,2.609
	C167.32,91.999,169.383,93.25,169.383,93.25 M175.189,75.548c0.425-1.6,2.55-3.403,3.34-3.778c0.793-0.358,0.834-0.212,1.772-0.638
	c0.95-0.412,1.05-1.409,2.46-1.965c1.402-0.546,1.608,0.799,0.518,1.189c-1.086,0.393-0.809,0.444-1.341,1.439
	c-0.538,0.987-1.961,0.441-1.961,0.441c-3.25,1.467-3.201,3.663-3.734,4.664c-0.544,0.978-1.366,0.758-1.366,0.758
	c-1.724,2.756,0.058,3.437,0.058,3.437c4.785-2.439,3.797,0.229,3.797,0.229c5.02,2.109,9.312-3.374,9.312-3.374
	c0.318,1.068,2.196,0.672,2.196,0.672c3.943-3.807,6.588-2.254,6.588-2.254s-0.492,1.442-2.681,1.56
	c-2.203,0.131-2.323,1.273-3.511,1.793c-1.174,0.512-2.627-0.339-2.627-0.339c-2.599,3.265-4.652,3.702-4.652,3.702
	c0.244,1.575-1.773,1.498-2.277,1.857c-0.493,0.35-0.679,2.267-0.679,2.267s-1.171-0.423-1.588-0.133
	c-0.412,0.304-1.803,1.201-2.707,0.621c-0.917-0.596-1.483,0.451-1.483,0.451c-2.131,1.876-0.757,3.145-0.757,3.145
	c-1.677,2.094-1.358,2.731-1.257,3.41c0.1,0.67,1.448,0.464,1.398-0.122c-0.031-0.588-0.2-0.903,0.771-1.469
	c1.924-1.098,3.646-0.084,3.646-0.084s0.006-0.869,2.417,1.158c2.397,2.016,3.545,0.473,4.07-0.078
	c0.557-0.57,0.659,0.393,0.659,0.393c-1.659,2.841-0.426,2.475-0.426,2.475c2.999-0.206,1.729-3.7,2.423-3.432
	c0.659,0.267,1.108,1.515,1.108,1.515c3.638-0.54,1.75-3.761,1.938-4.029c0.203-0.253,0.479-1.006,0.479-1.006
	c0.276-2.844,2.763-4.665,2.763-4.665c-2.523-0.885-2.783-2.736-2.783-2.736c2.432,2.319,5.862,1.759,6.938,1.438
	c1.071-0.316,0.467,0.664,1.525,0.413c1.055-0.262,1.083,0.468,1.083,0.468c1.262,0.168,1.439,0.849,1.439,0.849
	c-5.633,2.346-5.486,3.518-5.486,3.518c2.005-0.288,2.233,0.989,2.233,0.989c-3.869,2.587-4.68,5.489-4.68,5.489
	c0.916,0.973,3.881-0.109,6.799-2.711c2.936-2.621,4.614-0.644,4.614-0.644c-4.138,0-5.464,3.454-5.464,3.454
	c-0.738,1.622-3.426,2.521-3.426,2.521l0.611,0.681c-1.406,1.727-0.864,2.407,0.058,2.569c0.922,0.16,1.076-0.321,1.431-1.2
	c0.392-0.885,1.83-2.511,2.803-3.506c0.975-0.983,1.777-2.158,3.421-3.326c3.348-2.334,4.803,1.14,4.907,1.373
	c0.106,0.242,0.617,0.692,1.378,0.025c0.771-0.657,1.317-1.724,1.082-2.415c-0.233-0.694-0.737-1.226-0.091-1.548
	c0.637-0.316,0.894-1.014,0.921-2.819c0.028-1.803,0.305-0.015,0.862-1.513c0.541-1.51-1.182-1.583-0.889-2.407
	c0.295-0.814-0.845-1.819-1.411-1.48c-0.559,0.333-1.561,1.534-1.74-0.086c-0.139-1.614,2.671-0.988,2.671-0.988
	s0.287-1.323-0.146-2.495c-0.934-2.403-3.14-2.875-6.432-5.705c-3.266-2.825-6.824-2.37-6.824-2.37
	c0.495-0.784,1.411-1.049,1.411-1.049c-4.303-3.153-10.634-0.63-10.634-0.63c0.277-1.917,2.572-3.119,2.572-3.119
	c-2.295-0.534-5.629,1.484-5.629,1.484c-0.048-1.316,0.921-2.309,0.921-2.309s-3.738,1.006-7.846,4.138
	c-6.841,5.214-5.708,6.041-5.708,6.041L175.189,75.548z M176.134,123.424c0,0,4.665,4.439,7.214,7.279
	c2.546,2.85,8.027,6.359,14.133,7.218c0,0,0.588-0.914,1.522-0.459c0,0-0.63-0.91-0.411-1.383c0.242-0.467,0.292-2.051-2.467-2.39
	c0,0-0.638-0.196-0.272-0.997c0.35-0.806,2.2-0.922,3.407,1.252c1.209,2.184,0.595,2.357,1.083,3.385
	c0.475,1.031,3.065,3.597,5.905,5.184c2.836,1.586,4.434,2.446,4.434,2.446s5.635,1.43,7.68,1.353c2.053-0.067,3.594,0.195,5.046-1
	c1.447-1.213,6.223-9.805,15.739-14.373c0,0-2.476-0.37-3.554-5.417c0,0,1.291,1.819,2.644,2.348c0,0,0.392-1.819,1.228-2.396
	c0,0-1.119,2.202,0.368,3.621c0,0,0.2-2.367,0.938-2.809c0,0-0.509,2.451,0.646,2.93c0,0-0.051-1.369,0.519-2.136
	c0,0-0.392,1.003,0.511,1.676l0.65-0.468l0.304-1.248l0.541,1.029l0.695-0.222l0.729-0.9l0.341,0.565c0,0,13.729-3.234,21.529,2.27
	c5.504,3.864,1.285,16.573,1.285,16.573s1.703-1.382,3.093-0.254c1.42,1.103-2.946,5.343-9.627,8.086c0,0-2.296,0.692-2.979,1.668
	c0,0,0.624,0.24,0.838,0.946c0,0-2.33,2.632-4.504,3.846c-2.18,1.213-3.906,2.003-5.163,3.881l-1.317,0.788
	c0,0-4.106,0.667-5.801,1.616c-1.247-0.305-2.114-0.388-2.114-0.388s0.47-2.16,0.058-3.185c0,0,0.05-0.71,1.098-0.469
	c0,0-1.332-1.534-4.439-2.437c0,0-0.687-1.433-2.194-1.562c0,0-1.388-2.771-1.982-3.671c-0.563-0.895-1.443-0.77-2.598-0.04
	c-1.135,0.758-2.162,2.031-2.162,2.031s-0.435-1.24,0.397-1.893c0,0-1.356-1.34-2.148,0.704c-0.805,2.05,1.918,3.543,2.402,1.953
	c0,0,2.703,1.639,1.395,4.09c0,0-0.934,2.827-0.743,3.858c-1.014-0.891-0.794-1.735-0.794-1.735s-0.77,0.679-2.689,0.844
	c-1.927,0.169-2.643-0.175-3.428,0.12c-0.776,0.297-1.199,0.589-1.872-0.108c-0.684-0.699-1.229-1.596-2.105-1.596
	c-0.867-0.028-0.535-1.128-2.014-0.582c-1.473,0.546-0.36-1.724-0.36-1.724s-4.766,4.466,0.811,5.789c0,0,0.373,2.401,2.111,2.917
	c0,0,0.197,1.342,0.874,1.533c0.704,0.203,1.28-0.643,2.506-0.197c1.241,0.422,3.331,0.422,3.786,0.428
	c0.414,0,0.392,1.022,0.392,1.022s1.145,0.052,3.266,1.298c2.1,1.243,3.99,0.406,3.99,0.406l2.54,1.26c0,0-0.697,0.661-0.842,1.087
	c0,0-0.639-1.269-4.156-1.176c-1.098,0.035-3.296-1.441-3.296-1.441s-2.377-0.148-2.766-0.853c0,0-0.426-0.072-1.601,0.007
	c-1.174,0.074-2.26-0.396-2.26-0.396s-0.775,1.167-3.117-0.401c0,0,2.213,1.834,2.471,4.133c0,0,1.818,1.183,2.661,0.899
	c0.854-0.288,2.601-1.063,3.986-0.748l0.014,0.733c0,0,2.344,0.691,3.771,0.515c1.415-0.185,2.825-0.817,4.412,0.92
	c0,0,1.979-0.095,3.12,0.038c1.128,0.124,3.786,0.31,4.649-0.853c0,0,0.351,0.43,0,1.231c0,0,2.206,0.68,3.669-0.224
	c1.458-0.905,4.941-4.509,6.937-5.679c0,0-2.529,0.868-4.536,0.284c0,0,9.092-2.904,12.92-7.449c0,0-0.369,1.595-2.213,3.458
	c0,0,12.774-2.41,17.301-13.303c0,0,4.339-0.395,5.979-1.415c0,0,1.322-2.456,1.295-3.614c0,0,1.06,1.34,0.239,4.027
	c0,0,1.36-0.272,1.433-1.122c0.075-0.861-1.262-4.86-0.411-6.314c0,0-2.936-7.287-6.88-7.971c0,0,1.421-3.599-0.934-3.36
	c0,0-3.5-9.392-7.029-7.111c0,0-1.834-3.232-4.444-4.49c-2.629-1.26-4.494-0.488-6.117-1.94c0,0-1.619-0.298-2.788-0.353
	c-1.133-0.048-2.864-0.582-2.864-0.582s1.094,0.425,3.775-0.412c2.691-0.836,3.479-1.93,3.359-2.966
	c-0.103-1.038-2.436-7.547-6.646-11.423l0.917-0.563c0,0-0.941-1.255-2.434-0.705l-1.283-0.95l-0.529,1.419
	c0,0-2.542-4.14-12.147-5.244c-2.413-0.296-2.619,2.075-2.619,2.075s-4.519-6.103-7.214-5.986l-0.344-1.008l1.188-0.885
	c0,0-0.948-1.333-3.9,1.063c0,0-1.05-3.525-6.569-5.588c0,0-0.357-1.223-1.612-0.346c0,0-1.113-0.279-2.162-0.098
	c-1.05,0.177-1.794,0.71-2.392,0.383c0,0-0.417,4.058,2.837,5.793c0,0,1.127-0.242,1.839-0.91c0,0,4.11,3.411-1.156,8.577
	c0,0,2.598,4.963-3.269,11.185c0,0,4.602-6.815,2.426-10.518c0,0-0.285,6.553-4.235,9.197c0,0,3.801-4.192,3.113-10.711
	c0,0,2.249-1.999,1.63-5.957l-0.624,0.252c0,0,0.908,3.493-1.712,6.004c0,0,1.189,4.873-4.725,11.673c0,0,4.877-7.134,3.743-11.84
	c0,0,2.187-2.074,1.724-4.43c0,0-0.481,3.184-2.353,4.326c0,0,0.231,2.737-3.276,7.48l0.934,0.022c0,0-2.786,2.562-5.373,7.474
	l-0.976,0.572c0,0,1.863-2.742,1.978-3.882l-0.345-0.11c0,0,5.508-5.666,5.894-11.537c0,0,2.97-2.101,2.7-5.49
	c0,0-0.775,3.568-3.204,5.399c0,0-0.233,1.765-1.275,2.675l0.473,0.305c0,0-1.772,2.151-2.401,3.287l1.16-0.084
	c0,0-3.446,3.228-3.919,4.672c-0.483,1.441-0.915,3.553-2.823,4.804c0,0,0.979-0.11-0.071,2.9c-1.043,3.021-2.54,1.657-2.54,1.657
	s-1.704,4.409-4.111,3.99c-2.402-0.415-2.191-2.051-2.191-2.051s1.399,1.185,2.307,0.552c0.917-0.644,1.792-2.353,0.796-3.265
	c0,0-1.072,0.746-3.605,0.306c-2.546-0.443-5.329-1.96-6.314-2.123c-0.997-0.186-4.85,0.302-9.552,1.881c0,0,0.9,0.667,1.133,1.357
	C179.669,124.333,178.233,123.424,176.134,123.424 M224.166,163.595c2.915,0.527,5.29-1.486,5.29-1.486
	c-0.449-0.163-0.078-0.697-0.523-1.451c-0.436-0.757-1.335-0.629-1.335-0.629c-4.431-1.167-1.66-6.491-0.539-6.864
	c1.138-0.386,2.579,0.734,3.54,0.232c0.965-0.509,2.94-1.813,4.452,1.08c1.538,2.875,2.7,3.392,2.7,3.392
	c0.676-2.713,2.291,1.842,2.291,1.842c0.211-1.126-0.972-4.33-0.972-4.33c0.927,0.243,2.516,2.161,2.516,2.161
	c-0.274-2.258-2.469-4.683-2.469-4.683c3.886,1.558,5.48,7.461,5.48,7.461c0.451-3.702-2.975-8.47-2.975-8.47
	c4.705,2.95,5.374,8.59,5.374,8.59c0.417-5.714-3.153-10.228-3.153-10.228c4.84,3.35,5.356,10.325,5.356,10.325
	c1.249-6.559-2.923-12.619-2.923-12.619c3.674,2.293,4.895,8.512,4.895,8.512c1.728-3.184-1.538-10.531-1.538-10.531
	c3.216,2.598,4.012,9.027,4.012,9.027c1.588-4.059-1.567-10.828-1.567-10.828c3.285,2.315,4.07,7.686,4.07,7.686
	c1.414-4.205-1.206-9.604-1.206-9.604c3.007,2.074,3.856,7.261,3.856,7.261c2.033-4.47-0.118-10.282-0.118-10.282
	c3.052,2.382,2.924,7.968,2.924,7.968c2.269-5.694,0.128-10.613,0.128-10.613c2.684,3.554,2.238,8.212,2.238,8.212
	c2.396-5.958-0.256-10.101-0.256-10.101c3.332,2.519,2.059,9.18,2.059,9.18c3.473-8.105-0.158-11.175-0.158-11.175
	c2.455,0.921,3.125,4.324,3.125,4.324s0.506-2.916-1.338-5.07c-3.983-4.69-20.309-5.698-30.948,3.076
	c-19.414,16.028-17.42,26.383-17.42,26.383C221.174,162.394,221.246,163.086,224.166,163.595 M223.016,183.508
	c0,0-2.48,7.846,0,24.316c0,0,2.142-10.144,2.036-12.411c0,0-0.101,14.566-0.332,19.681c-0.248,5.105,0.417,6.326,0.417,6.326
	s-2.671,14.261,3.796,18.896c0,0,1.53-4.234,2.792-9.265c1.227-4.993,3.573-12.059,5.627-15.478c0,0-2.844,8.643-2.844,11.473
	c0.022,2.833,0.271,1.869-0.497,5.8c-0.757,3.925-1.089,4.54-2.105,4.478c-0.992-0.018-1.48,2.725-0.898,3.557
	c0,0,0.275,1.654-0.333,2.708c0,0,0.069,1.238,1.777,1.908c0,0-0.943,2.377-0.299,3.286c0.634,0.922,0.193,2.301,1.301,2.912
	c1.133,0.644,1.347,0.236,2.268,0.844c0.907,0.582,1.977,1.497,4.53,1.088c2.528-0.434,2.539-0.506,4.462-3.158
	c0,0,0.609,0.275,1.41-0.532c0.78-0.799,2.289-1.992,3.827-3.234c1.523-1.28,5.042-4.045,7.396-11.489
	c1.476-4.762,1.425-7.377,1.425-7.377s1.941-1.497,2.602-3.973c0.657-2.512,1.631-3.135,1.947-4.457
	c0.301-1.322,0.012-2.6-0.515-3.722c0,0-1.73,0.651-2.493,2.542c-0.752,1.908-1.208,1.967-1.163,3.289
	c0.072,1.335,0.979,1.461,0.026,2.389c-0.963,0.916-1.914,1.429-1.914,1.429s-0.287-0.513,0.88-2.548
	c1.163-2.057,0.357-3.646,0.357-3.646s-2.25,1.643-2.39,5.32c0,0,0.584,0.387,0.648,1.268c0,0-2.467,1.611-3.121,3.735
	c0,0,2.355,2.748-0.121,6.818c0,0-0.666,0.966-0.893,2.237c-0.232,1.265-0.545,1.423-0.879,2.016
	c-0.309,0.605-0.373,1.395-0.373,1.395s-1.093-0.245,0.258-3.153c0.479-1.008-0.72-0.782-1.062-2.141
	c-0.354-1.377,0.148-2.153,0.148-2.153l-0.537-0.963c0,0-0.39,4.135-0.684,5.031c-0.296,0.893,4.224,2.761-3.45,7.257
	c0,0-1.778,6.733-6.406,7.071c-2.349,0.158-3.011-3.436-1.529-4.117c1.51-0.686,0.109,1.529,2.512,1.43
	c2.411-0.088,3.869-2.57,3.911-6.124c0,0,0.579-0.477,1.801-0.335c1.215,0.133,1.867-1.924,1.998-2.701
	c0.136-0.778,0.023-1.304-1.017-2.424c0,0,0.404-0.731,1.181-1.834c0.787-1.107,0.549-10.063-1.805-17.008
	c0,0,4.218,3.791,4.762,13.03c0,0,0.426-5.304,2.447-6.915c0,0-0.028-1.088,0.955-3.307c0.968-2.223,3.635-11.2,3.943-14.633
	c0.306-3.42-0.457-5.671-0.611-8.092c-0.174-2.402,0.014-4.629,0.938-10.713c0.912-6.089,3.614-11.859,3.614-11.859
	s-2.302,1.124-3.743,7.626c0,0-0.186-5.135,3.202-9.531l-0.112-1.037c0,0-4.224,4.629-4.091,10.896l0.804,0.362
	c0,0-2.309,9.823-1.35,18.418c0,0-1.237-2.9-0.619-13.757c0,0-1.738-2.993-0.506-7.076c1.224-4.051,3.053-5.832,3.053-5.832
	s0.807-2.041,1.18-2.624c0,0-3.957,1.481-5.453,10.011c-0.692,3.935,1.441,4.163,0.951,8.651c-0.512,4.5-0.592,11.21-0.592,11.21
	s-0.783-5.06-0.202-12.945c0.158-2.149-0.497-2.112-0.806-3.561c-0.326-1.439-0.361-5.439,1.189-8.937c0,0-3.361,5.143-1.475,9.694
	c0,0,0.772,0.502,0.324,3.966c-0.481,3.494-1.395,9.197-1.363,11.453c0,0-0.281-5.849,0.506-13.625c0,0,0.094-1.002-0.738-3.324
	c-0.82-2.317,1.059-9.251,2.607-11.03c1.545-1.752-4.553,3.635-3.479,10.288c1.072,6.662,1.072,5.437-0.912,14.282
	c0,0,1.025-4.666,0.873-8.263c-0.178-3.592-0.809-4.14-1.008-6.703c-0.191-2.59,0.112-5.576,2.281-8.819
	c0,0-3.792,3.444-2.629,10.786c1.179,7.333-0.73,12.428-0.73,12.428s1.142-6.909,0-10.738c-1.134-3.827,0.014-7.919,0.014-7.919
	s-1.797,2.509-0.578,8.321c0.387,1.892-0.534,1.728-0.514,4.138c0.016,2.377-0.621,5.107-0.621,5.107s0.282-4.889,0.02-7.912
	c-0.277-3.03,0.034-4.283-0.164-9.038c0,0-1.813,9.197-1.154,14.911c0,0-0.956-3.665,0-12.788c0,0,0.412-2.76-0.171-3.593
	c0,0-0.694,1.495-0.371,4.139c0.329,2.687,0.059,1.839-0.408,3.212c-0.471,1.373,0.084,4.886-0.843,6.397
	c0,0,0.291-4.096-0.085-5.69c-0.373-1.588,1.139-1.967,0.183-4.828c0,0,0.363-0.829,0.071-1.591
	c-0.307-0.786-0.248-1.498-0.248-1.498l-0.511,0.054c0,0-0.084,1.73,0.12,3.797c0.219,2.065-1.042,3.083-0.69,5.974
	c0.369,2.908,0.025,3.199,0.025,3.199s-0.433-3.25-0.974-5.242c-0.509-1.983,1.37-3.178,0.093-7.467l-0.772,0.224
	c0,0,0.737,2.38,0.256,4.332c-0.49,1.953-0.881,3.403-0.399,4.731c0,0-0.609-1.383-0.446-5.677c0.085-2.597-0.593-3.233-0.593-3.233
	l-0.69,0.175c0,0,0.576,1.342,0.442,2.84c-0.115,1.503-0.455,2.971-0.071,4.136c0,0-0.371-5.301-1.488-6.805l-0.492-0.026
	c0,0,0.525,1.473,0.492,2.562c-0.065,1.081-0.306,1.262-0.264,2.207c0,0-0.133-1.698-0.738-2.748
	c-0.621-1.036-0.698-1.788-0.698-1.788l-0.981,0.195c0,0-0.617,1.915,0.233,2.776c-2.056-1.14-1.324-2.321-1.324-2.321
	s-6.553,0.88-8.656,1.679C224.803,185.276,224.584,184.941,223.016,183.508 M211.221,154.726c0,0-3.44,9.621,0.276,12.958
	c0,0,0.313-0.594,0.88-0.948c0,0-1.071,8.554-0.915,13.517c0.141,4.952,0.8,14.014,5.988,26.589c0,0-1.218-3.778-1.592-7.021
	c0,0,1.025,2.781,1.792,4.237c0,0-2.586-9.239-2.553-14.376c0,0,0.801,5.796,2.131,8.935c0,0-0.795-5.367-0.541-8.012
	c0,0,2.077,14.157,4.998,19.016c0,0-4.254-12.132-3.9-21.147c0,0,0.858,11.188,3.544,16.586c0,0-3.311-10.949-2.098-19.818
	c0,0,0.126,7.51,1.693,13.013c0,0-0.362-10.816,0.321-16.714c0,0-2.072,0.213-2.243-4.18c-0.162-4.385-3.394-9.166-3.394-9.166
	s-1.802,0.353-2.349-2.297c-0.56-2.647,0.691-2.724-1.119-5.284c0,0,0.638-0.329,1.19-0.084c0,0-0.593-1.191-0.863-2.551
	c0,0,0.467,1.034,2.354,1.511c0,0-2.002-2.675-3.013-3.949c0,0,1.843,0.691,3.626,2.092c0,0-0.028-0.656-0.117-1.028
	c0,0-1.646-0.513-2.835-1.956C212.484,154.646,212.033,154.999,211.221,154.726 M199.877,140.81c0,0,0.87,2.91,1.24,3.701
	c0.366,0.789,1.766,1.407,2.496,1.456c0.716,0.047,0.892,1.542,0.892,1.542s0.037,2.687,1.764,3.936
	c1.762,1.25,3.702,1.735,6.101,0.934c0,0,0.991,2.136,4.279,2.857c0,0-2.338-2.813-3.223-5.581c0,0,2.593,2.554,4.48,3.398
	c0,0-3.468-3.01-4.882-5.648c0,0,0.222-0.467,0.885-0.496c0,0-2.652-0.631-3.988-0.038c0,0-3.709-1.547-6.551-4.505
	C202.449,141.417,199.877,140.81,199.877,140.81 M265.773,226.012c-0.216,2.51,2.31,4.256,2.31,4.256
	c-1.485-0.19-2.649-1.491-2.649-1.491c1.43,3.908,6.392,4.7,6.392,4.7c-3.616-0.278-6.138-2.036-6.138-2.036
	c2.947,4.731,10.18,3.751,10.18,3.751c-5.157,1.723-9.98-1.597-9.98-1.597s-0.029,1.151,0.564,1.479
	c0.584,0.311,1.135,0.563,2.682,0.808c1.546,0.291,2.058,1.105,5.685,0.667c3.644-0.454,5.574-3.179,5.574-3.179l0.511,0.454
	l0.484-0.347c0,0,0.255-0.539,0.533-0.988c0.316-0.445,0.625-0.987,1.023-1.564c0.366-0.587,0.663-1.776,0.663-1.776
	s0.583,1.12,0.274,2.438c-0.298,1.33-2.058,3.192-2.058,3.192c1.578-0.226,2.087,1.77,2.087,1.77c8.604,0.564,9.47,2.292,9.47,2.292
	c-2.494-1.146-4.209-0.875-5.175-0.746c-0.982,0.109-5.66-0.92-5.66-0.92c0.103-1.373-0.363-1.59-3.456-0.626
	c-4.102,1.326-9.542,0.645-9.542,0.645c2.725,1.502,6.38,0.926,9.597,0.028c3.189-0.886,3.063,0.686,3.063,0.686
	c4.748,0.699,9.597,2.427,9.597,2.427c-3.713-1.251-10.574-1.432-10.574-1.432c0.269-0.692-0.522-1.188-0.522-1.188
	c-7.491,2.235-13.587,0.892-13.587,0.892c5.546,1.548,7.687,0.909,10.717,0.279c3.011-0.631,2.607,0.39,2.854,0.71
	c0.224,0.327,2.536,0.812,3.772,0.744c1.261-0.061,2.11,0.085,3.838,0.464c1.75,0.38,9.927,2.171,9.927,2.171
	c-5.103-0.316-7.257-0.755-9.13-1.24c-1.9-0.479-3.361-0.369-4.41-0.551c-1.062-0.188-2.537-0.455-3.931-0.406
	c-1.385,0.048-1.595-1.226-1.595-1.226c-6.699,1.746-12.396,0.728-12.396,0.728c2.166,1.238,9.234,0.382,11.042,0.27
	c1.844-0.118,1.591,1.006,1.591,1.006s3.063-0.13,5.161,0.253c2.142,0.378,12.477,2.984,12.477,2.984
	c-4.294-0.766-12.816-2.243-14.703-2.219c-1.889,0.025-2.62-0.013-3.318-0.141c-0.721-0.114-1.781-0.625-2.142-0.595
	c-0.363,0.006-1.359,0.626-0.449,0.936c0.873,0.298,4.406,1.351,4.848,0.92c0.426-0.437,1.22-0.369,1.391-0.104
	c0.17,0.245,0.029,1.144,0.847,0.502c0.853-0.664,1.392-0.475,1.392-0.475c-0.492,0.346,0.368,0.783,0.368,0.783
	c0.667-0.038,1.687-0.438,1.687-0.438s-0.055,1.085,1.178,0.794c2.726-0.665,2.333,0.408,2.333,0.408
	c2.394-0.944,2.415,0.562,2.415,0.562c2.906-1.299,2.696,0.402,2.696,0.402c2.734-1.172,2.438,0.587,2.438,0.587
	c2.583-1.504,2.754,0.479,2.754,0.479c1.613-0.58,2.101-0.367,2.101-0.367c-0.064,1.183,0.362,0.721,1.218,0.453
	c1.389-0.479,1.759,0.314,1.866,0.888c0.117,0.616,0.117,1.047,0.435,1.749c0.309,0.713,1.156,1.963,2.558,3.076
	c1.419,1.124,1.631,2.394,1.631,2.394c-1.047,0.173-1.587-0.486-1.587-0.486c0.314,2.734,2.287,3.16,2.073,3.979
	c-0.244,0.833-0.159,2.088,0.404,2.908c0.586,0.823,1.78,4.037,2.855,4.861c1.097,0.852,1.291,0.529,1.843,0.316
	c0.539-0.2,0.496,0.877,0.896,0.244c0.408-0.655-0.27-2.1-0.27-2.1c-3.035-0.878-4.012-5.351-3.756-4.725
	c0.256,0.624,1.571,2.603,2.396,2.904c0.819,0.278,1.613-0.523,1.687-0.055c0.053,0.424,0.309,1.984,0.806,2.452
	c0.499,0.453,0.441,1.601,0.441,1.601s0.255,0.182,0.875,0c0.602-0.182,0.557,0.982,1.12,0.631c0.552-0.335,1.104,0.702,1.022,1.126
	c-0.07,0.426-1.119,1.113-1.771,0.573c-0.627-0.539-0.565-0.894-0.992-0.978c-0.41-0.072-0.524,0.183-0.897,0.649
	c-0.38,0.432-1.2,0.643-1.047,0.157c0.155-0.484-0.567-0.879-1.203-0.495c-0.664,0.386-2.625,2.004-2.625,2.004
	c1.345,0.531,0.879,1.693,0.253,1.944c-0.636,0.25-0.648-0.475-1.092-0.928c-0.405-0.425-1.105-0.256-1.105-0.256
	c-0.422,0.715-0.21,2.423-0.21,2.423c0.988,0.169,0.537,1.053,1.995,0.996c1.477-0.034,3.295-0.479,4.442-1.266
	c1.151-0.717,1.037-1.74,2.436-1.502c1.42,0.251,1.432,0.604,1.919,0.251c0.508-0.339,0.623-0.599,0.921-1.497
	c0.311-0.909,0.48,0.158,0.837-0.577c0.34-0.745-0.749-2.402-0.749-2.402c1.005,0.031,1.567,1.444,1.567,1.444
	c0.212-0.466,0.258-0.735,0.258-0.735c-0.966-0.979-0.684-1.802-0.684-1.802c0.329,0.565,0.914,0.597,0.914,0.597
	c0.125-0.358,0.051-0.795,0.051-0.795c-0.539-0.175-0.879-1.164-0.879-1.164c0.543,0.24,0.757-0.099,0.757-0.099
	c0.051-2.449-2.485-3.683-2.485-3.683c0.271-0.763,0.572-4.051,0.31-5.975c-0.224-1.941-0.623-4.253-0.623-4.253
	c-0.852,0.755-1.697-0.593-1.697-0.593s3.634-6.685,3.498-8.392c-0.382-4.728-1.741-6.628-3.67-7.176
	c-1.941-0.571-4.039,0.607-4.039,0.607c0.933,0.946,0.658,1.697,0.658,1.697c-1.527-0.907-4.305-1.559-4.305-1.559
	c0.043,0.456-0.382,0.597-0.382,0.597c-1.291-1.094-2.453-1.021-2.453-1.021l-0.088,0.563c0,0-1.585-0.989-4.753-1.922
	c-3.16-0.923-7.592-1.414-8.958-1.497c-1.359-0.093-0.819-1.526-1.601-1.596c-0.808-0.063-3.459-1.403-5.729-2.082
	c-2.298-0.698-2.395-0.955-2.395-0.955s0.117,0.989-0.371,1.706c-0.188-0.563-1.02-0.776-1.02-0.776
	c0.183-0.631-0.061-1.383-0.061-1.383c-0.565-4.53-9.329-9.277-11.166-9.005c-1.877,0.246-5.395-0.07-5.395-0.07
	C267.15,223.137,266.002,223.518,265.773,226.012 M166.888,115.266c-2.097-0.457-3.956-1.863-3.956-1.863
	c2.871,2.244,4.559,5.011,4.559,5.011s0.076-0.425,0.098-1.788c0.03-1.387-0.645-2.446-0.645-2.446
	c-2.309-0.108-4.375-2.378-4.375-2.378C164.403,114.173,166.888,115.266,166.888,115.266 M233.079,181.582
	c2.548,0.371,4.579-0.437,4.579-0.437c-1.47-0.267-0.916-1.4-3.023-1.772c-2.119-0.371-5.036,1.373-5.036,1.373
	S230.535,181.199,233.079,181.582 M221.475,179.828c0.821-0.511,1.408,0.303,1.408,0.303c1.306,0.383,3.567-0.448,3.567-0.448
	c-0.242-0.329-0.095-1.178-0.095-1.178c-0.628,0.326-1.875-0.037-2.414,0.085c-0.521,0.133-0.796,0.43-1.453,0.028
	c-0.652-0.411-1.479-0.261-1.479-0.261C220.317,178.609,220.662,180.337,221.475,179.828 M258.115,239.915
	c0.565,0.532,0.684,1.498,0.684,1.498s-0.719,0.32-0.586,2.807c0.158,2.495,1.222,1.744,1.222,1.744
	c0.354-0.747,1.345-0.202,1.345-0.202c-1.018,0.552-1.305,1.59-1.305,1.59c1.988,1.221,1.822-3.668,1.822-3.668
	c0.436-0.735,0-2.106,0-2.106c2.886-1.029,2.279-5.059,2.279-5.059c-0.583,2.512-1.972,2.851-1.972,2.851
	c1.632-1.815,1.315-5.852,1.052-7.518c-0.301-1.629-0.087-2.771-0.087-2.771l-0.965-1.128c-0.442,1.17-1.421,1.877-1.421,1.877
	c-0.623,4.251-2.656,9.253-2.656,9.253S257.559,239.382,258.115,239.915 M306.81,269.385c0,0,0.734-1.753,2.094-2.383
	c0,0-0.934-0.08-1.299,0.354c-0.39,0.438-0.146,0.396-0.581,0.767C306.6,268.488,306.81,269.385,306.81,269.385 M310.364,266.893
	c0,0,0.612,0.253,0.881-0.056c0.286-0.314-0.283-0.782-0.283-0.782L310.364,266.893z M308.096,269.912c0,0,0.712-0.742,2.269-0.979
	l1.103-1.352c0,0-0.976,0.649-1.771,0.213C309.696,267.795,308.424,268.877,308.096,269.912 M309.559,271.546
	c0,0,0.837-0.71,1.896-1.335c1.052-0.626,1.536-0.826,2.161-1.083c0.606-0.251,0.806-0.933,0.806-0.933s-0.88-0.308-1.489,0.255
	c-0.62,0.511-0.578-0.479-1.092,0.449c-0.536,0.911-0.48,0.136-0.778,0.724c-0.329,0.588-0.409,0.655-0.952,0.858
	c-0.552,0.182-1.091,0.021-0.966,0.548C309.26,271.569,309.559,271.546,309.559,271.546"/>
<path fill-rule="evenodd" clip-rule="evenodd" fill="#FCCF00" d="M94.197,80.347c0,0-1.611,1.026-3.162,5.31
	c-2.091,5.725-2.771,4.45-2.771,4.45s-2.291,2.256-1.236,5.643c0,0,0.441,0.333-0.026,0.672c-0.468,0.336-0.667-0.456-0.667-0.456
	s-1.8-3.371,1.93-6.751c0.881-0.77,1.021-1.486,1.021-1.486s2.107-4.574,2.472-5.655c0.341-1.127,1.533-2.715,2.675-3.088
	C94.431,78.987,96.649,78.629,94.197,80.347"/>
<path fill-rule="evenodd" clip-rule="evenodd" fill="#FCCF00" d="M93.432,84.666c0,0-0.652,2.766-1.142,3.27
	c-0.502,0.486-0.746,0.037-0.746,0.037s-1.517,1.456-0.168,4.668c1.331,3.218,2.608,3.926,2.608,3.926s0.072-0.892-0.481-1.481
	c-0.554-0.587-0.738-3.765-0.683-4.583c0.057-0.82,0.81-3.66,1.434-4.86C94.878,84.431,93.432,84.666,93.432,84.666"/>
<path fill-rule="evenodd" clip-rule="evenodd" fill="#FCCF00" d="M182.245,106.771c0,0-0.109,1.415,1.914,1.571
	c0.724,0.063,0.801,1.239,0.801,1.239s0.483,0.507,1.289-0.797c0.817-1.304,2.769-2.917,2.769-2.917l0.668-0.049l1.52-1.603
	c0,0,0.966-0.205,1.151-1.188c0.175-0.994-1.54-0.266-1.54-0.266s-0.799,0.727-1.006,1.491c0,0-0.721,0.383-1.35,0.705
	c-0.636,0.332-1.634,0.587-1.634,0.587s-1.292,0.788-1.866,1.128c-0.567,0.323-1.1,0.457-1.1,0.457l-0.056,0.285
	C183.804,107.415,183.041,107.641,182.245,106.771"/>
<path fill-rule="evenodd" clip-rule="evenodd" fill="#FCCF00" d="M190.815,81.707c0,0,1.752-1.002,3.665-1.104
	c1.901-0.104,3.76-0.359,3.632-1.615C197.969,77.743,193.695,78.063,190.815,81.707"/>
<path fill-rule="evenodd" clip-rule="evenodd" fill="#FCCF00" d="M200.296,81.839c0,0,1.737-0.413,3.751,0.153
	c1.999,0.583,4.586-2.252,0.283-2.548C201.483,79.224,202.062,80.845,200.296,81.839"/>
<path fill-rule="evenodd" clip-rule="evenodd" fill="#FCCF00" d="M201.719,103.447c0,0,0.079-1.669-0.45-2.407
	c0,0,1.158-1.528,3.108-3.154c1.937-1.615,3.865-2.671,4.029-1.043c0.142,1.617,0.197,3.741-0.672,4.607
	c0,0-0.328-0.204-0.233-1.491c0.083-1.298-1.114-3.616-2.462-0.928c0,0,0.688,1.415,0.634,2.202c-0.066,0.78-0.022,0.867-0.277,1.17
	c-0.286,0.333-0.932,0.709-0.932,0.709s0.205-2.415-1.197-2.233c0,0,0.433,2.052,0.271,2.593c0,0,1.289,0.437-1.008,1.563
	C200.239,106.154,198.884,105.116,201.719,103.447"/>
<path fill-rule="evenodd" clip-rule="evenodd" fill="#FCCF00" d="M170.292,103.295c0,0-0.523,0.565-0.2,1.201
	c0.313,0.633,0.413,0.582,0.814,0.352c0.392-0.211,1.015-0.837,0.652-1.25C171.197,103.168,170.786,103.016,170.292,103.295"/>
<path fill-rule="evenodd" clip-rule="evenodd" fill="#FCCF00" d="M220.026,117.841c6.182-4.147,7.453-6.885,8.13-9.03
	c0.66-2.13,1.473-2.189,1.473-2.189c2.038,2.091,1.963,4.984,1.963,4.984s-3.938,2.136-9.927,6.529c-6.013,4.385,0,6.54,0,6.54
	c-1.666,11.968,4.599,14.679,4.599,14.679c-7.35-4.417-5.735-13.152-5.735-13.152c-4.033-1.067-4.454-4.915-4.454-4.915
	c-4.559,2.468-6.492,2.714-6.492,2.714c-2.873-3.924,0.657-6.646,0.657-6.646C208.405,124.509,213.851,121.993,220.026,117.841"/>
<path fill-rule="evenodd" clip-rule="evenodd" fill="#FCCF00" d="M237.95,113.366c0.311,1.14-0.092,2.24,0.617,3.955
	c0.701,1.735,1.262,2.329,2.289,3.105c1.012,0.753,1.325,1.165,0.794,2.087c-0.525,0.923-1.364,0.711-2.242,0.327
	c-0.881-0.351-1.374-0.448-2.444-0.496c-1.09-0.05-1.242-0.365-2.051-1.225c-0.78-0.864-0.266-2.524,0.608-5.06
	c0.881-2.524,1.657-3.616,1.657-3.616C237.402,111.893,237.642,112.226,237.95,113.366"/>
<path fill-rule="evenodd" clip-rule="evenodd" fill="#FCCF00" d="M306.894,240.432c0,0,2.822,0.441,4.411,0.485
	c1.595,0.072,2.422,0.349,2.859,0.66c0.46,0.298,0.716-0.322,0.854-1.097c0.138-0.784,0.296-0.953-0.781-1.071
	c-1.052-0.124-1.67-0.314-3.119-0.264c-1.462,0.023-2.015,0.224-3.276,0.438c-1.275,0.198-1.844-0.324-1.844-0.324
	S305.277,240.063,306.894,240.432"/>
<path fill-rule="evenodd" clip-rule="evenodd" fill="#FCCF00" d="M301.859,243.323c0,0,1.984-0.091,3.405,0.582
	c1.386,0.686,1.613-0.137,2.875,0.093c1.273,0.224,3.221,0.734,3.517,1.128c0.299,0.411,0.101,0.682,0.598,0.825
	c0.467,0.149,3.275-0.865,3.275-0.865s0.623-0.713,0.199-1.282c0,0,2.462,0.146,0.723-3.144c0,0,0.764-0.289,1.389,0.693
	c0.606,0.964,0.74,3.604-1.474,4.154c-1.052,0.256-0.638,0.893-0.638,0.893s1.43,0.116,2.617-0.846
	c1.169-0.937,0.63-3.237,0.63-3.237s1.091,0.793,0.806,2.476c-0.301,1.698-1.87,2.305-3.037,2.377
	c-1.188,0.091-1.866,0.704-1.866,0.704l-0.613-0.257c0,0-0.648,0.392-0.763,1.022c0,0-2.001,0.158-2.54,0.411
	c0,0-0.755-0.63-1.318-1.535c0,0-2.396-1.202-3.966-1.415c-1.568-0.209-1.985-0.266-1.985-0.266s0.957-0.624,2.603-0.364
	c1.62,0.293,3.518,0.99,4.704,2.146c0,0-0.423-2.266-4.121-2.619c0,0-1.033-0.309-1.462-0.266c-0.466,0.078-1.56-0.256-2.719-0.74
	C301.563,243.486,301.859,243.323,301.859,243.323"/>
<path fill-rule="evenodd" clip-rule="evenodd" fill="#FCCF00" d="M233.481,169.805c0,0,2.039-0.429,3.81,0.608
	c0,0,0.458-0.154,1.039,0.328c0.57,0.45,0.42,0.501,1.498,0.546c1.08,0.048,2.284-1.407,2.554-1.735
	c0.27-0.314-0.243-1.054,0.552-0.619c0.794,0.425,1.433,1.407,0.313,1.941c-1.112,0.521-2.567,0.929-2.567,0.929
	s-0.576,0.406-0.083,1c0,0-1.073,0.257-2.54-0.946C236.6,170.65,235.446,170.226,233.481,169.805"/>
<path fill-rule="evenodd" clip-rule="evenodd" fill="#FCCF00" d="M235.92,160.427c-0.474,0.342-0.311,0.546-0.029,1.094
	c0.251,0.568,0.198,0.842,0.398,1.007c0.193,0.186,0.568,0.102,0.687-0.244c0.135-0.327,0.257-0.602-0.085-1.176
	c-0.325-0.571-0.402-0.581-0.595-0.753C236.12,160.186,236.19,160.257,235.92,160.427"/>
<polygon fill="#FCCF00" points="43.809,13.482 49.226,13.482 49.226,34.755 62.18,34.755 62.18,39.42 43.809,39.42 "/>
<path fill="#FCCF00" d="M73.24,13.482h6.134l9.173,25.938h-5.873l-1.71-5.335h-9.556l-1.757,5.335h-5.673L73.24,13.482z
	 M72.878,29.615h6.646l-3.277-10.204L72.878,29.615z"/>
<path fill="#FCCF00" d="M117.956,28.193c-1.518,1.27-3.685,1.897-6.506,1.897h-5.399v9.33h-5.382V13.482h11.131
	c2.569,0,4.619,0.661,6.143,2.008c1.526,1.333,2.294,3.409,2.294,6.211C120.236,24.764,119.473,26.924,117.956,28.193
	 M113.823,18.844c-0.694-0.566-1.648-0.863-2.885-0.863h-4.888v7.644h4.888c1.237,0,2.191-0.308,2.885-0.931
	c0.682-0.621,1.027-1.608,1.027-2.96C114.85,20.381,114.504,19.422,113.823,18.844"/>
<polygon fill="#FCCF00" points="124.583,13.482 130.001,13.482 130.001,34.755 142.948,34.755 142.948,39.42 124.583,39.42 "/>
<path fill="#FCCF00" d="M154.011,13.482h6.128l9.183,25.938h-5.882l-1.712-5.335h-9.545l-1.762,5.335h-5.672L154.011,13.482z
	 M153.656,29.615h6.643l-3.277-10.204L153.656,29.615z"/>
<polygon fill="#FCCF00" points="188.813,13.482 188.813,18.076 181.054,18.076 181.054,39.42 175.597,39.42 175.597,18.076 
	167.801,18.076 167.801,13.482 "/>
<path fill="#FCCF00" d="M196.739,13.482h6.131l9.181,25.938h-5.88l-1.714-5.335h-9.55l-1.761,5.335h-5.666L196.739,13.482z
	 M196.377,29.615h6.646l-3.276-10.204L196.377,29.615z"/>
<path fill="#FCCF00" d="M240.657,14.143c0.961,0.419,1.771,1.016,2.435,1.818c0.549,0.655,0.986,1.383,1.304,2.186
	c0.324,0.793,0.479,1.701,0.479,2.724c0,1.235-0.308,2.448-0.929,3.629c-0.628,1.196-1.649,2.039-3.082,2.529
	c1.198,0.483,2.04,1.164,2.544,2.056c0.496,0.887,0.745,2.232,0.745,4.053v1.746c0,1.183,0.047,1.985,0.146,2.404
	c0.143,0.674,0.476,1.161,1,1.481v0.649h-5.983c-0.167-0.58-0.284-1.04-0.354-1.394c-0.137-0.726-0.212-1.462-0.227-2.231
	l-0.034-2.41c-0.023-1.652-0.312-2.758-0.855-3.307c-0.552-0.557-1.581-0.827-3.094-0.827h-5.296v10.169h-5.294V13.481h12.406
	C238.344,13.517,239.708,13.742,240.657,14.143 M229.456,17.98v6.97h5.842c1.151,0,2.02-0.14,2.602-0.417
	c1.027-0.492,1.539-1.465,1.539-2.924c0-1.572-0.496-2.622-1.49-3.165c-0.555-0.309-1.387-0.464-2.507-0.464H229.456z"/>
<polygon fill="#FCCF00" points="264.61,13.482 270.245,13.482 261.398,39.42 256.279,39.42 247.504,13.482 253.297,13.482 
	258.923,33.173 "/>
<path fill="#FCCF00" d="M290.907,21.573c-0.414-1.772-1.404-3.006-3.006-3.709c-0.897-0.392-1.879-0.58-2.973-0.58
	c-2.093,0-3.806,0.778-5.15,2.358c-1.346,1.575-2.013,3.942-2.013,7.103c0,3.189,0.724,5.438,2.183,6.768
	c1.453,1.324,3.104,1.985,4.964,1.985c1.814,0,3.303-0.525,4.466-1.573c1.159-1.039,1.871-2.41,2.15-4.096h-6.001v-4.336h10.808
	V39.42h-3.592l-0.55-3.238c-1.052,1.229-1.987,2.09-2.815,2.587c-1.434,0.882-3.188,1.323-5.273,1.323
	c-3.437,0-6.254-1.192-8.444-3.579c-2.299-2.386-3.44-5.655-3.44-9.808c0-4.201,1.161-7.56,3.462-10.095
	c2.324-2.531,5.369-3.803,9.183-3.803c3.286,0,5.932,0.842,7.933,2.512c2.011,1.67,3.147,3.754,3.443,6.253H290.907z"/>
<path fill="#FCCF00" d="M320.852,16.248c0.784,1.096,1.186,2.42,1.186,3.956c0,1.583-0.401,2.858-1.2,3.812
	c-0.443,0.544-1.104,1.035-1.975,1.478c1.324,0.483,2.316,1.247,2.998,2.292c0.672,1.045,1,2.315,1,3.801
	c0,1.538-0.379,2.921-1.152,4.135c-0.486,0.817-1.107,1.488-1.841,2.045c-0.824,0.637-1.794,1.063-2.925,1.298
	c-1.131,0.236-2.344,0.355-3.669,0.355h-11.676V13.482h12.533C317.286,13.529,319.525,14.452,320.852,16.248 M306.771,17.981v5.724
	h6.293c1.137,0,2.047-0.22,2.748-0.643c0.701-0.425,1.053-1.186,1.053-2.281c0-1.206-0.454-2.001-1.392-2.386
	c-0.807-0.271-1.828-0.415-3.068-0.415H306.771z M306.771,27.996v6.917h6.293c1.117,0,2.005-0.153,2.627-0.455
	c1.131-0.564,1.71-1.64,1.71-3.235c0-1.352-0.556-2.28-1.66-2.788c-0.623-0.284-1.475-0.426-2.594-0.439H306.771z"/>
<polygon fill="#FCCF00" points="342.329,13.482 348.473,13.482 339.791,29.7 339.791,39.42 334.381,39.42 334.381,29.7 
	325.406,13.482 331.781,13.482 337.178,24.78 "/>
<path fill="#FCCF00" d="M363.422,16.186c2.079-2.129,4.748-3.2,7.978-3.2c4.321,0,7.472,1.434,9.468,4.3
	c1.106,1.606,1.701,3.218,1.783,4.83h-5.426c-0.342-1.238-0.785-2.174-1.322-2.813c-0.968-1.127-2.403-1.685-4.293-1.685
	c-1.938,0-3.45,0.796-4.574,2.385c-1.113,1.583-1.672,3.838-1.672,6.742c0,2.918,0.585,5.092,1.754,6.545
	c1.187,1.44,2.683,2.174,4.492,2.174c1.859,0,3.283-0.627,4.247-1.867c0.538-0.673,0.997-1.675,1.357-3.011h5.378
	c-0.464,2.822-1.655,5.125-3.559,6.896c-1.905,1.772-4.357,2.659-7.345,2.659c-3.684,0-6.582-1.201-8.697-3.591
	c-2.108-2.406-3.172-5.701-3.172-9.888C359.819,22.135,361.021,18.644,363.422,16.186"/>
<polygon fill="#FCCF00" points="386.969,14.204 392.396,14.204 392.396,35.477 405.341,35.477 405.341,40.141 386.969,40.141 "/>
<polygon fill="#FCCF00" points="421.51,14.204 427.139,14.204 418.292,40.141 413.173,40.141 404.402,14.204 410.191,14.204 
	415.816,33.895 "/>
<path fill="#FCCF00" d="M449.708,16.969c0.798,1.097,1.187,2.42,1.187,3.957c0,1.583-0.399,2.858-1.195,3.812
	c-0.445,0.544-1.113,1.035-1.982,1.478c1.331,0.483,2.325,1.248,2.997,2.292c0.678,1.045,1.011,2.314,1.011,3.8
	c0,1.539-0.373,2.921-1.146,4.135c-0.496,0.817-1.106,1.488-1.837,2.044c-0.83,0.637-1.811,1.063-2.938,1.299
	c-1.119,0.235-2.346,0.354-3.659,0.354h-11.693V14.204h12.533C446.148,14.25,448.397,15.174,449.708,16.969 M435.631,18.703v5.723
	h6.305c1.121,0,2.026-0.22,2.736-0.642c0.703-0.425,1.063-1.186,1.063-2.282c0-1.205-0.474-2.001-1.393-2.385
	c-0.8-0.271-1.826-0.415-3.062-0.415H435.631z M435.631,28.718v6.917h6.295c1.131,0,1.996-0.153,2.624-0.455
	c1.146-0.565,1.711-1.641,1.711-3.236c0-1.352-0.556-2.279-1.657-2.788c-0.612-0.284-1.478-0.425-2.6-0.438H435.631z"/>
</svg>
