<svg xmlns="http://www.w3.org/2000/svg" xml:space="preserve" width="500" height="420" viewBox="0 0 500 420"><path fill="#003f71" fill-rule="evenodd" d="M0 1h500L250 417.7z" clip-rule="evenodd"/><path fill="#fccf00" fill-rule="evenodd" d="m191.4 63.2.4.1v.5l-.3.4-1 1.1 2.6-.1h1.4l.6.2.5.2V67h2.8l.9.1 1.2.4 1.2.6 1 .7.4.5.2.5 5 2.6 4 3.5.6.5.4.2.3.3.4.7.3.8.2 1.7v3.8l6.5 1.8 2.9 1.8 7 2.7.6.5.5.5.6.6.6.4 2.7.6 3.1.4 6.7 3.1 3.6 2.8 3.3 3 3.1 2.3.4.6.2.3.2.2.7.3.7.2.6.3.6.3.6.7.4.7 1 1.4 4.3 4.5 3.4 4.8.7 1.4.3.7.5.6 5.4 5.3 2.4 3 1.8 3 1 3.3.6 1 1 .9 1.7 1.7 2 3.2 1.6 3.5.1 1v2.9l.3.7.4.8.3.8.2.8-.2 1.1-.3 1-.4 1-.7.7-2.8 2.1-.5.1h-.2l-.2.2-.4.6-.3.7-.3.6-.4.6-3.7 3.6-4.3 3-9.5 4.3.3 9.1-1.7 5.7-2.3 5.2-.3 1.2-.1 1.3v3l-.2 5.8 2.5.5 1 .4 1 .4.7.6.6.7.5.9.4 1 .6 3.8.2 4 6.8 1.3 5.4 2.7 1 1 1 .9 2.7 1.8.8 1.2.4.6.5.5.7.4.8.3 1.7.6 5 3 4.7 1 12 3.1 1 .2.7-.2.7-.4.6-.3 3.6-.6 2 .3 1.8 1 .4.3.3.5.4 1 .3.6.3.6.9 4.1-.7 5.1-.8 1.8-.5 1v1l.2 1 .4 1 .6 1.9.3 3.5.6 3.3 1.5 2.7.6 1.4.2.9v.9l-.3 2.7-.8 1.3-1.3 1.2-1.4.8-.8.3-.7.1h-2.3l-.7.2-.6.6-.7.6-4 1.5-2.7-.7-1.6-.5-.6-.3-.2-.2-.2-.7v-1.3l-.3-.2-.4-.2-.4-.1h-.4l-.4-.3-.2-.2-.2-.5-.3-1-.1-1.3v-.9l.2-.6.4-.5 1-.8 1.3-.6 1-.7.6-.6.3-.5v-1.5l-.2-1-.8-1.7-1.7-3.3-.2-.8-.3-.8-.5-.7-.7-.6-.8-.6-.6-.8-.6-1.3-.3-.7-.3-.3-.3-.1-5.2-1.2-14.6-2.7-4.5-1-4.5-.9-3 .6H264l-.3.9-.2 1.1-.2 1.2-.4 1-.2.4-.4.2h-2.9l-.5.2-.5.4-.5.4-.6.3h-.8l-.8-.2-2.9 1.2-.4.3-.4.5-.3.6-.4.3-3.5.2-.3-.1-.1-.2-.3-.4-.3-.4h-.5l-.5.2-.6.3-1.2.9-2.4 1.4h-3.5l-3.6-1-.8-.8-.5-.4-.4-.3-1.4-.6-.5-.2-.5-.5-.7-1-.5-1-.8-2.3-1.3-4.8-2.4-5-2-5.5-.4-5.4v-1.5l.1-.7v-.7l-2-4.2-2.2-4-5.6-15-1.7-6-1.5-14.5.5-8.7-.8-3.2-1.2-3.4v-5l.6-5-3.1-2.5-2.1-3.4-.2-.8-.1-.4-.2-.4-.4-.2-.4-.2-1-.3-2.2-2.8-1-1.8-.4-.9-.5-.7-.8-.4-.9-.3-1.9-.5-5.7-3-5.9-4.8-5.4-5-3.5-2-3.9-1.9-.5-.5-.5-.7-.3-.8-.1-.9-4-3-3.2-3.7-.6-.9-.3-.4-.4-.3h-.8l-1 .2-1 .4-.8.2-6-.1h-6l-.8.3-.8.4-.8.4-.7.4-6.6.9h-4.2l-1.3-.3-1.3-.3-1.2-.3h-1l-.3.1-.3.2-.2.1-.2.1h-1l-.9-.2-.9-.2h-1.3l-.4.4-.5.3-.4.2-5.7.3-6.3-1.2-2.8-1.3-2.3-1.7-.9-1.1-.4-.6-.4-.5-.7-.4-.6-.2-1.5-.6-.8-.6-.8-.7-.7-.8-.8-.5-.5-.2h-.5l-1.2-.2-4.4-2-2.7-2.5-2.5-2.5-3.7-2.8-1-1.1-.3-.7-.6-.4-2.8-1.5-5-4-1.3-.7-1.3-.5-3.4-3.3-2.1-2.5-.3-.8v-1.5l.2-.6.4-.5.5-.3h.7l.9.4 2.9 1.8h1l.5.2h.4L70 81l1.4.7 1.6.6 2.6 1.1-.1-1-.3-1-.4-1-.6-.7-2.8-2.7-.6-.9-.5-1-1-1.7-.4-.4-.5-.3-.9-.6-1.7-2.3-1.1-2.8v-1.4l.6-1.3.7-.8.3-.2.4-.1h.4l.3.2.7.5 2.6 2.9 3.2 2.6.4.8.4.8.5.8.5.6.6.4.6.3 1.5.6.6.5.4.6.7 1.2 2.6 2.2.8.4h.6l.2-.1.1-.3V77l-.4-1.3-.5-1-1.3-1.6-2.8-3-.8-2-.4-1-.6-.7-.6-.4-.7-.3-1.3-.6-.7-.7-.7-.8-1-1.7-.8-1.7-.2-1L72 58l.3-.7.5-.4 1.1-.5.5-.4.4-.3 2.9 3.3.8.5.8.3 1.7.9.7.7.7 1 .6.9.6.7 4.8 5.2 3.3 4.4.6.6.3.2h.3l.2-.2.2-.4.4-1.1.2-1.4v-3l-.2-1.2-.2-.4-.1-.2v-.2l-.2-.6v-.5l-.3-1v-3.7l-.3-.8-.4-.7v-.4H92l-.2-.8v-1l.2-1.2.1-.7.3-.5.4-.2.4-.2h2.1l.8.3.5.4.4.6.9 3.2.2.4.4.4.6.8.3 1v3.5l.3.8.4.9.4.9.3.8v4l.1 3.7.4.9.5.9L103 79l.9 1.7.5.8.3.3.3.2.7.2.7-.1.7-.3.8-.4 1.2-1 .5-.6.2-.6.4-1.5.2-.7.3-.6.9-.8 1.2-.7 2.3-1.1 1-.3 1 .1 1.8.7 1.1.5 1 .6-.2 1-.2 1-.5.7-.6.5-1.4 1.1-2 3-2.4 2.8-1.2 1.7-.2.8v.6l.2.2.2.2 4-.4h2.3l1 .2 1.2.4.7.5 1 .7 1 .6.5.2h.6l.8-.1.8-.4 1.7-.8 12.7-4 6.6-.4 2.4.4 1.1.2h1.1l3.3-1.8 3.6-2.1 7.3-2h2.2l.6-.3 2.7-3.1.2-1 .1-1.2.1-1 .3-1.2.3-.2.4-.2.9-.3.7-.8.8-.8 5-3 1-.8.5-.5.6-.4 5.4-1.2 1.6-.6 1-.3zM66.8 64.8l-.9 1.5s2.6 3.3 2.6 4.2c0 0 .7.4 1.6.3s.8 1.7.8 1.7 1.9 2.5 2 3.1l2 .7s1.2 3.2 2.7 4.5 1.5 2.6 1.5 2.6l-.1 1s-.8.2-1 .8c-.3.7-.9 1.6-1.7 1.3s-1.1-1-1.8-1.3l-1.5-.7c-.6-.1-1.5-1.9-4.6-2.8l-1.7-1.5s-1.3-1.1-2-1.2q-1-.4-1.7-1h-2q.2.1.7 1.1c.2.6 1 1.2 1.4 1.7s1.5 1.3 1.5 1.3l2 .7.2.9s2 1.5 2.2 2.2c0 0 1.9 1 3 1 1 0 0 1 0 1s1.5 1.9 3.1 1.6c0 0 .9-2 1.4.8 0 0 1.1 1.4 1.8 2 .6.5 1.6 1.4 2.3 1.2l1-1.3c.2-.4 1-.7 1-.7l.9.6s-1.8 1.3-.8 3l1.7 2.6s.8-.3 1.5.7l1.5.5s-.1 1.6 2.5 2.2c0 0 .1-.7 1.4-.4 1.2.4 3 1 3.1-.6.2-1.5-.7-1-.7-1s-1.4-1-1.8-2 .6-.8 1-.5c.2.4.3 1.8 2.3 2 0 0 .3.7.7.6 0 0-.5 1.3.6 1.1s.9-1-.2-1.4c0 0-1.8-1.7-1.2-2.4 0 0 .6-.1.8.6s.8 1.4 1.3 1-.7-1-.7-1-.2-.4 0-.7c.4-.3 1.2.7 1.2.7l1.8 1.8c.6.6 2.6 1.2 3.2.7 0 0-2.6.3-4.6-3.3 0 0-.3-.9.7-.4 0 0 2 3.5 4.8 2.5 0 0-3.6-.3-4.3-2.9 0 0 0-.9.9 0 0 0 2.1 3.4 5.5 1.6 0 0 1-.8-.6-.5 0 0-2.4 1.4-4.2-1.8 0 0-.3-1 .6-.4 0 0 1.8 3 4.2 1 0 0-2.5.7-3.3-1.5 0 0-.2-.7.6-.3 0 0 .4 1.8 3.1.7 0 0-1.5-.2-2-1.5 0 0-.3-.8.6-.4 0 0 1 2.4 4-.1 0 0-2.2 1.1-3-.8 0 0-.5-1 .2-1 0 0 .5 1 1.5 1 1 .2 2.4-1.3 2.4-1.3l-1.3.3s-1-.4-.1-.8l1.4-.6.2-.8s-.9.9-1.2 0 1.7-.3 1.6-1.7c0 0-1 .5-1-.4-.2-1 1.6-1.2 2.4-1l.7-.2s-1-.6-1.3-1.2.3-1.2.6-1c.3 0 .7.4 1.2 0q.8-.6 1.6-2.2c.4-1 2.8-1.1 3.4-2.9q.8-2.6-1.2-2.4c-1.2 0-5.6.5-6.4 6 0 0 0 1-.5 1s-.6-.8-.6-.8-1.4 1-2.6 1.2-2 2-3.8 1.6-2-2-2-2-2.3-.8-3.6-.3-2.7.7-2.8 0 .8-1.2 1.8-.9c1 .4 2.5-1 3.8-.8s2 .9 2 .9l-3.5-3.9s.7-.4.7-.8l-.6-2.4v-4.2q.2-2.3-.8-4.8c-.7-1.6 0-2.3-.4-3.6s-2-2.8-2-5.3c0-2.6-2.9-.4-2.2 2.5.6 3 2 2.9 2 2.9l-1 .6s-.1 2.6.3 3.5c.4 1 1.6 3 1.6 3l-.9.9s-.8 4.5-.6 5.6c.1 1-.4.3-.4.3l-.3 1s-2.2.4-3.8-.6c-1.7-1 .5-1.1.5-1.1l-.2-.5s-2-2.5-3.6-3.6c-1.6-1 .7-1.9-2.4-3.8s-.6-1-3.2-2.7c0 0 0-1.4-1-2q-1.2-.6-1.3-.4c0 .2-3.2-2.3-4-3.4-1-1.1-2.4-1-1.6 1.5a6 6 0 0 0 4.4 4.3v1s1.4 1.2 2 2.5a7 7 0 0 0 3 2.8c.7.2 1.4-.7 2 .3 0 0-1.4 1.5 1.7 6.4l.4 1-.8.2v.8L85 80h-1.6L82 81.4 80.6 80c-.5-.5-.2-2-1.6-2.6-1.3-.8-1-3-2.9-3-2-.1-3.1-4.3-6-6.1-2.8-1.8-2.5-4.8-3.3-3.4M112 90.7s1 .1-4.9 7.6c0 0-1 1.2-1.1 2.4-.3 1.3-2.1 1.6-2.2 2.6s-.8 2.8.2 4.2 2.7 1.6 4.4 2.4c1.7.9 5.8 1.3 7.5 0s0-2.5 1.4-2.3 2.3 1.2 3.7-.7c0 0-3.3-5.6-5.8-5.4-2.6.2.2-2.2 2.4-2.4s4 1 5.5.1c1.4-.8 1.8-2.7 2.3-2.1.6.6.3.8.5 1.3q.3.7-.8 2.3c-.7 1-1.3 2.5-1.2 3.1 0 .6 1.8.4 1.8.4s-2 4.4-1.8 5 1 .9 1 .9.1-1.7.6-1.7 1 3.8 7.7 3.7c6.6 0 2.1-1.7 12-3.3 0 0 3-1.4.9-5.1 0 0 .9-.2 1.6.5s2.7 1 3.3-.6c.7-1.6-.2-5-3.2-7.2 0 0-1.8-1.5.8-1.2s3.2 4 4.6 6.2 5 4 5 4v-.8s3.2 7.6 8.4 8.1v-.6s-5.6-2-6.7-6.2c0 0 3.2 4.6 6.3 5v-1s-4.1-.6-5.1-5.2c0 0 3 4 4.9 4 0 0-1.3-4.8-2-6.3-.8-1.6.9-3 1.4-3.6s-.9-1 .1-1.5 1.6 1.6.2 3.2 0 2.8 0 2.8 1.8-3.7 2.1-6.1c0 0-2.9 0-1.9-2.7.5-1.2 1 .3 1 .3h.8s0-1.5-.8-1.5-.9.6-1.6-.6-1-3.3 1.6-5c0 0 .5-1-1.3-.6s-2.5-.5 1.2-1.3l.3-.4s-2.7 0-3.2.3c0 0 1-1 3.6-1.7 0 0-1.6-.2-3.3.4 0 0 1-1.1 3.9-1.8 0 0-3.1-.6-8.7 1.8v1c.2.6-2-.3-2-.3l.1.8-1 .4-.1.5s-3.1 1.2 1.4 1.5l-1.5.4s6.5 5.1 8.2 8c0 0-10.3-9-13.5-8 0 0-3.5-1.4-3.6 0 0 0-2.7-1.5-2.7-.3 0 0-4.1-1.4-3.5 0 0 0-4.4-.8-3.4.8 0 0-2-.3-3.3.2l.3.7s-1.7 0-3 .4l.2.8s-3.5-.1-4 1.5l1.2 1s-1 .3-1.9 1c0 0-8.4-4.5-10.7-4.8s-4.6.7-4.6.7m57.4 2.5c.1-.6 1.2-2.1 1.6-2.1s.4.7.4.7l-1 1.7c-.7 1.3 0 2.1 0 2.1.8.3.3 1.2-.3 1.3q-.9.1-1 1.3l-2 6c-.8 2.2-.7 2.5.3 3.2 1 .6 1.3-.1 1.9-.7s.8-1.2 1.8-.8c1.3.5 1.6.5 2-.2.2-.8-.7-1.6-.2-2 .6-.4 1.6 1.1 1.8 1.5s1 .8.5 1.1l-1.3 1.4s-.5-.7-.9 0c-.3.7-1.5 1-1.5 1s.1-.8-.7-.8-1.8 1-2.6 1c-.7 0-1.4.2-.5 1.2 1 1-.1 1 .6 1.6s3 .3 5.4.9c2.3.5 5 .7 5 .7 0-.8-.5-1.1 0-1.5s2 1 2.1 3.3c0 2.3-1.5 1.3-1.6.5s-1-1-2.5-1.4l-5.2-.7c-.7-.2 0 .7-.7 1.3s-1.7-.8-1.7-.8-1.2-.2-.2 1q1.6 1.5 3.7 1.4c1.4 0 2.8.3 2.7 1.2-.2 1-1.2.3-1.7.5-1.3.5-2.1.1-3 0-.7-.3-1.5-.1-1.5-.1-.5 2.6 2.4 3 2.4 3-.7-.8.4-1.7 1.5-1 0 0 1.4 1.4 3 1.8 2.8.6 5.4-2.2 6.4-3.4s1-4 1.2-4.6c0-.7.2-2.6-.4-3l-2.2-1.5c-.7-.5-.1-1 .4-.7l1 .7c2.2 1 1.7 1.6 2 3.5l.3 4.6c.1-.9 1.2-2.2 1.7-3.2s-.3-1.5.6-2.7 1.8-.7 1 0c-.6.9-.3 2.1-.1 2.6s-.3 1.7-.3 1.7 4.7-.7 7.2-2.8c2.4-2.1 3-7.7 3-7.7s.2-.7.7-.6.6.7.6.7c-.4 2.5-.9 2.7 1.2 3 2 .3 2.3-2.8 2.3-2.8 3.6-1 3.6-4.2 4.5-3.7s-.9 2.4-.9 2.4c1.7-.8 2.5-2.7 3-4.5.3-1.7.2-4.6-1.6-5.1-2-.6-6.3 4.7-6.3 4.7s-1 .3-1.6 2-1.2 1.4-2 1.5c-.8 0-2.4-.3-2.5-1-.1-.8.5-1.8.1-2.6-.4-.7-1.8-1.7-1.8-1.7.3-1.4-.8-1.4-.8-1.4-.2-1.1-1.4-.8-1.4-.8-1.7 1.1-1.2 1.3-.4 2s.2 2.4.9 2.8 1.7.5 1.2 1.3-.7 0-1 0c-.5 0-.3.5-1 .8s-.8-1.3-.5-1.7q.3-.7-.1-2a5 5 0 0 0-1.4-1.5c-1.9.8-1.5-.1-2.1.2q-.8.5-2 .7c-.8.1-.7-.9-.7-.9-4.6.3-4.7-1-5.4-1.3s-2.2 0-2.7 0c-.4.2-1 .9-1 .9 1.4-.4 2.7.3 4 .5 1.4.1 1.4.8 1.8.8q.6-.1.6-.3c1.2.1 1.6 1.9 1.6 1.9-.5.3-1.9 2-2.5 2.4-.6.5-1-.3-.7-.6s1.3-1.2.8-1.8-2.4.1-3.1.2c-.7 0-.3-1-.3-1-.9.1-1.8-1-1.8-1-.5.5-1.7.7-1.7.7 1 .4 1 1.5 1 1.5s1 .1.9.5c-.2.4-.2.4-.9.6s-1.2-1.1-1.2-1.1-.6-.1-1-.7-.5-1.2-.5-1.2l-1-.3c-.8-.2-.6-1 .2-1l-.2-1q-.4-1 .4-2.4c.5-.9 1-2.4 1-2.7-.1-.2-.3-1.4-.2-1.6l1-1.5c.3-.3.5-.6 1.6-1.4s1.2.5 2-.1c.6-.6 2.8-.5 2.8-.5.3-2.2 2.2-1.1 2.3-2.4-2.9.5-5.6-1.9-5.6-1.9l-1.3 1.8c-.3.5-1.1.8-1-.2 0-1-.9-2-1.1-2.7s0-1.5 0-1.5c-2.6 1.2-4.8 8.3-4.6 8.8q.4.7.6.7a8 8 0 0 0-2.3 2.6 9 9 0 0 0 2.7 2.5m5.8-17.8c.4-1.6 2.5-3.4 3.3-3.7s.9-.2 1.8-.7 1-1.4 2.5-2c1.4-.5 1.6.9.5 1.3-1.1.3-.8.4-1.4 1.4s-2 .4-2 .4c-3.2 1.5-3.1 3.7-3.7 4.7-.5 1-1.3.8-1.3.8-1.7 2.7 0 3.4 0 3.4 4.8-2.4 3.8.2 3.8.2 5 2.1 9.3-3.4 9.3-3.4.4 1.1 2.2.7 2.2.7 4-3.8 6.6-2.2 6.6-2.2s-.5 1.4-2.7 1.5-2.3 1.3-3.5 1.8c-1.1.5-2.6-.3-2.6-.3-2.6 3.2-4.6 3.7-4.6 3.7.2 1.6-1.8 1.5-2.3 1.8s-.7 2.3-.7 2.3-1.2-.4-1.6-.1-1.8 1.2-2.7.6-1.5.4-1.5.4c-2.1 2-.7 3.2-.7 3.2-1.7 2-1.4 2.7-1.3 3.4s1.5.5 1.4-.1c0-.6-.2-1 .8-1.5 1.9-1 3.6 0 3.6 0s0-1 2.4 1c2.4 2.1 3.6.6 4.1 0 .6-.6.7.4.7.4-1.7 2.8-.5 2.5-.5 2.5 3-.2 1.8-3.7 2.5-3.5s1 1.6 1 1.6c3.7-.6 1.8-3.8 2-4l.5-1a7 7 0 0 1 2.8-4.7c-2.6-1-2.8-2.8-2.8-2.8 2.4 2.3 5.8 1.8 7 1.5 1-.4.4.6 1.4.4 1-.3 1.1.4 1.1.4 1.3.2 1.5.9 1.5.9-5.7 2.3-5.5 3.5-5.5 3.5 2-.3 2.2 1 2.2 1a11 11 0 0 0-4.7 5.5c1 1 3.9-.1 6.8-2.7 3-2.6 4.6-.7 4.6-.7a6 6 0 0 0-5.4 3.5c-.8 1.6-3.5 2.5-3.5 2.5l.7.7c-1.4 1.7-1 2.4 0 2.6 1 .1 1-.4 1.4-1.2.4-1 1.9-2.6 2.8-3.6 1-1 1.8-2.1 3.5-3.3 3.3-2.3 4.8 1.2 4.9 1.4 0 .2.6.7 1.4 0s1.3-1.7 1-2.4c-.2-.7-.7-1.2 0-1.5s.8-1 .9-2.9.3 0 .8-1.5-1.2-1.6-.9-2.4-.8-1.8-1.4-1.5-1.5 1.6-1.7 0 2.7-1 2.7-1 .2-1.4-.2-2.5c-1-2.4-3.1-2.9-6.4-5.7s-6.8-2.4-6.8-2.4c.5-.8 1.4-1 1.4-1-4.3-3.2-10.7-.7-10.7-.7.3-1.9 2.6-3.1 2.6-3.1-2.3-.5-5.6 1.5-5.6 1.5 0-1.3.9-2.3.9-2.3s-3.7 1-7.8 4.1c-6.9 5.2-5.8 6-5.8 6zm1 48s4.6 4.4 7.1 7.2c2.6 2.9 8 6.4 14.2 7.2 0 0 .6-.9 1.5-.4 0 0-.6-1-.4-1.4.2-.5.3-2-2.5-2.4 0 0-.6-.2-.2-1s2.2-1 3.4 1.2.6 2.4 1 3.4 3.1 3.6 6 5.2l4.4 2.5s5.6 1.4 7.7 1.3c2 0 3.6.2 5-1 1.5-1.2 6.2-9.8 15.7-14.4 0 0-2.4-.3-3.5-5.4 0 0 1.3 1.8 2.6 2.4 0 0 .4-1.8 1.3-2.4 0 0-1.2 2.2.3 3.6 0 0 .2-2.4 1-2.8 0 0-.5 2.4.6 3 0 0 0-1.5.5-2.2 0 0-.4 1 .5 1.7l.7-.5.3-1.3.5 1 .7-.2.8-.9.3.6s13.7-3.2 21.5 2.3c5.5 3.8 1.3 16.6 1.3 16.6s1.7-1.4 3.1-.3-3 5.3-9.6 8c0 0-2.3.8-3 1.8 0 0 .6.2.8.9 0 0-2.3 2.6-4.5 3.8-2.1 1.3-3.9 2-5.1 4l-1.3.7s-4.1.7-5.8 1.6l-2.2-.4s.5-2.1.1-3.1c0 0 0-.8 1.1-.5 0 0-1.3-1.5-4.4-2.4 0 0-.7-1.5-2.2-1.6l-2-3.7q-1-1.2-2.6 0c-1.1.7-2.2 2-2.2 2s-.4-1.2.4-1.9c0 0-1.3-1.3-2.1.7s1.9 3.6 2.4 2c0 0 2.7 1.6 1.4 4 0 0-1 2.9-.8 4-1-1-.8-1.8-.8-1.8s-.7.7-2.7.8c-1.9.2-2.6-.1-3.4.2-.8.2-1.2.5-1.9-.2s-1.2-1.6-2-1.6c-1 0-.6-1-2-.5-1.5.5-.4-1.8-.4-1.8s-4.8 4.5.8 5.8c0 0 .4 2.4 2 3 0 0 .3 1.3 1 1.5s1.2-.7 2.5-.2c1.2.4 3.3.4 3.8.4s.3 1 .3 1 1.2 0 3.3 1.3 4 .4 4 .4l2.5 1.3s-.7.7-.8 1c0 0-.6-1.2-4.2-1-1 0-3.2-1.5-3.2-1.5s-2.4-.2-2.8-.9h-1.6c-1.2.1-2.3-.4-2.3-.4s-.8 1.2-3-.4a8 8 0 0 0 2.4 4.2s1.8 1.1 2.6.9 2.6-1.1 4-.8v.7s2.4.7 3.8.6c1.4-.2 2.8-.9 4.4.9h3.1c1.2.1 3.8.3 4.7-.8 0 0 .3.4 0 1.2 0 0 2.2.7 3.7-.2 1.4-1 4.9-4.5 6.9-5.7 0 0-2.5.9-4.5.3 0 0 9-3 12.9-7.5 0 0-.4 1.6-2.2 3.5 0 0 12.7-2.4 17.3-13.3 0 0 4.3-.4 6-1.4 0 0 1.3-2.5 1.2-3.6 0 0 1.1 1.3.3 4 0 0 1.3-.3 1.4-1.1 0-1-1.2-4.9-.4-6.4 0 0-3-7.2-6.9-8 0 0 1.4-3.5-1-3.3 0 0-3.4-9.4-7-7.1 0 0-1.8-3.2-4.4-4.5s-4.5-.5-6.1-2l-2.8-.3c-1.1 0-2.9-.6-2.9-.6s1.1.5 3.8-.4 3.5-2 3.4-3a26 26 0 0 0-6.7-11.4l1-.5s-1-1.3-2.5-.7l-1.3-1-.5 1.4s-2.5-4.1-12.1-5.2c-2.5-.3-2.7 2-2.7 2s-4.5-6-7.2-6l-.3-1 1.2-.8s-1-1.3-4 1c0 0-1-3.5-6.5-5.5 0 0-.4-1.3-1.6-.4 0 0-1.1-.3-2.2 0-1 .1-1.8.6-2.4.3 0 0-.4 4 2.9 5.8 0 0 1.1-.2 1.8-1 0 0 4.1 3.5-1.1 8.7 0 0 2.6 5-3.3 11.1 0 0 4.6-6.8 2.4-10.5 0 0-.3 6.6-4.2 9.2 0 0 3.8-4.2 3-10.7 0 0 2.3-2 1.7-6l-.6.3s.9 3.5-1.7 6c0 0 1.2 4.9-4.7 11.7 0 0 4.8-7.1 3.7-11.9 0 0 2.2-2 1.7-4.4 0 0-.5 3.2-2.3 4.3 0 0 .2 2.8-3.3 7.5h1s-2.9 2.6-5.4 7.5l-1 .6s1.8-2.8 2-3.9l-.4-.1s5.5-5.7 6-11.5c0 0 2.9-2.1 2.6-5.5 0 0-.8 3.5-3.2 5.4 0 0-.2 1.7-1.3 2.6l.5.4s-1.8 2.1-2.4 3.2h1.2s-3.5 3.2-4 4.6c-.4 1.5-.9 3.6-2.8 4.8 0 0 1 0 0 3s-2.6 1.6-2.6 1.6-1.7 4.4-4.1 4-2.2-2-2.2-2 1.4 1.1 2.3.5c1-.7 1.8-2.4.8-3.3 0 0-1 .8-3.6.3-2.5-.4-5.3-2-6.3-2.1s-4.9.3-9.6 1.9c0 0 1 .6 1.2 1.3 0 0-1.5-.9-3.6-.9m48 40.2c3 .5 5.4-1.5 5.4-1.5-.5-.2-.1-.7-.6-1.4-.4-.8-1.3-.7-1.3-.7-4.4-1.1-1.7-6.5-.5-6.8 1.1-.4 2.5.7 3.5.2s3-1.8 4.5 1c1.5 3 2.7 3.5 2.7 3.5.6-2.7 2.2 1.8 2.2 1.8.3-1.1-1-4.3-1-4.3 1 .2 2.6 2.1 2.6 2.1-.3-2.2-2.5-4.6-2.5-4.6 3.9 1.5 5.5 7.4 5.5 7.4.4-3.7-3-8.4-3-8.4 4.7 2.9 5.4 8.5 5.4 8.5.4-5.7-3.2-10.2-3.2-10.2 4.9 3.4 5.4 10.3 5.4 10.3a19 19 0 0 0-3-12.6c3.7 2.3 5 8.5 5 8.5 1.7-3.2-1.6-10.5-1.6-10.5 3.2 2.6 4 9 4 9 1.6-4-1.5-10.8-1.5-10.8 3.3 2.3 4 7.7 4 7.7 1.5-4.2-1.2-9.6-1.2-9.6 3 2 3.9 7.2 3.9 7.2 2-4.4-.1-10.2-.1-10.2 3 2.3 2.9 8 2.9 8 2.3-5.8.1-10.7.1-10.7 2.7 3.6 2.3 8.2 2.3 8.2 2.4-6-.3-10-.3-10 3.3 2.4 2 9.1 2 9.1 3.5-8.1 0-11.2 0-11.2 2.4 1 3 4.4 3 4.4s.5-3-1.3-5.1c-4-4.7-20.3-5.7-31 3-19.4 16-17.4 26.4-17.4 26.4 2.2 1 2.2 1.8 5.2 2.3m-1.2 20s-2.5 7.8 0 24.2c0 0 2.2-10.1 2-12.4 0 0 0 14.6-.3 19.7s.4 6.3.4 6.3-2.6 14.3 3.8 19c0 0 1.6-4.3 2.8-9.3 1.3-5 3.6-12.1 5.7-15.5 0 0-2.9 8.6-2.9 11.4s.3 2-.5 5.8c-.7 4-1 4.6-2 4.5s-1.6 2.7-1 3.6c0 0 .3 1.6-.3 2.7 0 0 0 1.2 1.8 1.9 0 0-1 2.4-.3 3.3.6 1 .1 2.3 1.3 2.9 1 .6 1.3.2 2.2.8s2 1.5 4.6 1.1 2.5-.5 4.4-3.1c0 0 .6.2 1.4-.6q1.4-1.3 3.9-3.2c1.5-1.3 5-4 7.3-11.5 1.5-4.7 1.5-7.4 1.5-7.4s2-1.5 2.6-4c.6-2.4 1.6-3 2-4.4q.3-2-.6-3.7s-1.7.6-2.5 2.5c-.7 2-1.2 2-1.2 3.3.1 1.4 1 1.5 0 2.4-.9 1-1.8 1.4-1.8 1.4s-.3-.5.8-2.5.4-3.7.4-3.7-2.3 1.7-2.4 5.4c0 0 .6.3.7 1.2 0 0-2.5 1.6-3.2 3.8 0 0 2.4 2.7 0 6.8 0 0-.8 1-1 2.2s-.5 1.4-.9 2c-.3.6-.3 1.4-.3 1.4s-1.1-.2.2-3.1c.5-1-.7-.8-1-2.2-.4-1.3.1-2.1.1-2.1l-.5-1s-.4 4.2-.7 5c-.3 1 4.2 2.8-3.5 7.3 0 0-1.7 6.7-6.4 7-2.3.2-3-3.4-1.5-4s.1 1.5 2.5 1.4 3.9-2.6 4-6.1c0 0 .5-.5 1.7-.4 1.2.2 1.9-1.9 2-2.7q.4-.9-1-2.4l1.2-1.8c.8-1.1.5-10-1.8-17 0 0 4.2 3.8 4.8 13 0 0 .4-5.3 2.4-7 0 0 0-1 1-3.2s3.6-11.2 3.9-14.7c.3-3.4-.5-5.6-.6-8-.2-2.5 0-4.7 1-10.8.8-6 3.5-11.8 3.5-11.8s-2.3 1.1-3.7 7.6c0 0-.2-5.1 3.2-9.5l-.1-1s-4.2 4.6-4.1 10.8l.8.4s-2.3 9.8-1.4 18.4c0 0-1.2-2.9-.6-13.7 0 0-1.7-3-.5-7.1s3-5.9 3-5.9l1.3-2.6s-4 1.5-5.5 10c-.7 4 1.4 4.2 1 8.7-.6 4.5-.6 11.2-.6 11.2s-.8-5-.2-13c.1-2.1-.5-2-.8-3.5s-.4-5.5 1.1-9c0 0-3.3 5.2-1.4 9.7 0 0 .7.5.3 4-.5 3.5-1.4 9.2-1.4 11.5 0 0-.3-5.9.5-13.7 0 0 .1-1-.7-3.3s1-9.2 2.6-11c1.5-1.8-4.6 3.6-3.5 10.3 1.1 6.6 1.1 5.4-.9 14.3 0 0 1-4.7.9-8.3-.2-3.6-.8-4.1-1-6.7s0-5.6 2.3-8.8c0 0-3.8 3.4-2.7 10.8 1.2 7.3-.7 12.4-.7 12.4s1.1-7 0-10.8 0-7.9 0-7.9-1.8 2.5-.6 8.3c.4 2-.5 1.8-.5 4.2s-.6 5-.6 5 .3-4.8 0-7.8 0-4.3-.1-9c0 0-1.9 9.1-1.2 14.9 0 0-1-3.7 0-12.8 0 0 .4-2.8-.2-3.6 0 0-.7 1.5-.3 4.1.3 2.7 0 1.9-.4 3.2s0 5-.9 6.4c0 0 .3-4 0-5.7-.4-1.6 1-2 .1-4.8 0 0 .4-.8 0-1.6l-.2-1.5h-.5l.1 3.9c.3 2-1 3-.7 6 .4 2.8 0 3.1 0 3.1s-.4-3.2-.9-5.2 1.4-3.2 0-7.5l-.7.3s.8 2.3.3 4.3q-1 2.9-.4 4.7s-.6-1.4-.5-5.7c.1-2.6-.6-3.2-.6-3.2l-.7.2s.6 1.3.5 2.8-.5 3 0 4.2c0 0-.5-5.3-1.6-6.8h-.5s.6 1.4.5 2.5c0 1-.3 1.2-.2 2.2 0 0-.2-1.7-.8-2.8q-.8-1.6-.7-1.7l-1 .2s-.6 1.9.3 2.7c-2-1.1-1.3-2.3-1.3-2.3s-6.6.9-8.7 1.7-2.3.4-3.9-1m-11.8-28.8s-3.4 9.6.3 13q0-.2.9-1s-1 8.6-1 13.6c.2 4.9.9 14 6 26.5 0 0-1.2-3.7-1.5-7l1.7 4.3s-2.5-9.3-2.5-14.4c0 0 .8 5.8 2.1 9 0 0-.8-5.4-.5-8 0 0 2 14 5 19 0 0-4.3-12.2-4-21.2 0 0 1 11.2 3.6 16.6 0 0-3.3-11-2-19.9 0 0 0 7.6 1.6 13 0 0-.3-10.8.3-16.7 0 0-2 .3-2.2-4.1s-3.4-9.2-3.4-9.2-1.8.3-2.3-2.3c-.6-2.6.7-2.7-1.2-5.3 0 0 .7-.3 1.2 0 0 0-.6-1.3-.8-2.6 0 0 .4 1 2.3 1.5l-3-4s1.9.7 3.6 2.1v-1s-1.7-.5-3-2c0 0-.4.4-1.2.1M200 140.8s.8 3 1.2 3.7 1.8 1.4 2.5 1.5c.7 0 1 1.5 1 1.5s0 2.7 1.7 4a6 6 0 0 0 6 .9s1 2.1 4.3 2.8c0 0-2.3-2.8-3.2-5.5 0 0 2.6 2.5 4.5 3.4 0 0-3.5-3-4.9-5.7 0 0 .2-.5 1-.5 0 0-2.7-.6-4 0 0 0-3.8-1.6-6.6-4.5-1-1-3.5-1.6-3.5-1.6m65.9 85.2c-.2 2.5 2.3 4.3 2.3 4.3a5 5 0 0 1-2.7-1.5c1.5 3.9 6.4 4.7 6.4 4.7-3.6-.3-6.1-2-6.1-2 3 4.7 10.2 3.7 10.2 3.7-5.2 1.7-10-1.6-10-1.6s0 1.1.6 1.5 1 .5 2.6.8 2 1 5.7.6 5.6-3.1 5.6-3.1l.5.4.5-.3.5-1 1-1.6c.4-.6.7-1.8.7-1.8s.6 1.2.3 2.5-2 3.2-2 3.2c1.5-.2 2 1.7 2 1.7 8.6.6 9.5 2.3 9.5 2.3-2.5-1.1-4.2-.8-5.2-.7s-5.7-1-5.7-1c.1-1.3-.3-1.5-3.4-.6-4.1 1.4-9.6.7-9.6.7 2.8 1.5 6.4 1 9.6 0s3.1.7 3.1.7c4.8.7 9.6 2.4 9.6 2.4-3.7-1.2-10.6-1.4-10.6-1.4.3-.7-.5-1.2-.5-1.2-7.5 2.3-13.6 1-13.6 1 5.6 1.5 7.7.8 10.7.2s2.6.4 2.9.7 2.5.8 3.8.7c1.2 0 2 .1 3.8.5l10 2.2a44 44 0 0 1-9.2-1.3l-4.4-.5q-1.6-.4-4-.4c-1.3 0-1.5-1.2-1.5-1.2-6.7 1.7-12.4.7-12.4.7 2.1 1.2 9.2.4 11 .2 1.9 0 1.6 1 1.6 1s3 0 5.2.3c2.1.4 12.4 3 12.4 3a172 172 0 0 0-18-2.4c-.7 0-1.8-.6-2.1-.6s-1.4.7-.5 1 4.4 1.3 4.9.9 1.2-.4 1.4-.1c.1.2 0 1.1.8.5s1.4-.5 1.4-.5c-.5.4.4.8.4.8.6 0 1.7-.4 1.7-.4s-.1 1 1.1.8c2.8-.7 2.4.4 2.4.4 2.4-1 2.4.5 2.4.5 2.9-1.3 2.7.4 2.7.4 2.7-1.1 2.4.6 2.4.6 2.6-1.5 2.8.5 2.8.5 1.6-.6 2-.4 2-.4 0 1.2.4.7 1.3.5 1.4-.5 1.8.3 1.9.9q-.1.8.4 1.7a9 9 0 0 0 2.6 3c1.4 1.2 1.6 2.5 1.6 2.5-1 .2-1.6-.5-1.6-.5.3 2.7 2.3 3.2 2 4q-.3 1.4.5 2.9c.6.8 1.8 4 2.8 4.8 1.1.9 1.3.6 1.9.4s.5.8.9.2-.3-2-.3-2c-3-1-4-5.4-3.8-4.8s1.6 2.6 2.4 2.9c.9.3 1.6-.5 1.7 0s.3 2 .8 2.4.5 1.6.5 1.6.2.2.8 0 .6 1 1.2.6c.5-.3 1 .7 1 1.1s-1.1 1.2-1.8.6-.5-.9-1-1q-.4 0-.9.7c-.4.4-1.2.6-1 .1s-.6-.8-1.2-.5-2.6 2-2.6 2c1.3.6.8 1.7.2 2-.6.2-.6-.5-1-1s-1.2-.2-1.2-.2c-.4.7-.2 2.4-.2 2.4 1 .2.5 1 2 1s3.3-.4 4.4-1.2 1-1.8 2.5-1.5c1.4.2 1.4.6 1.9.2q.6-.3 1-1.5c.2-.9.4.2.7-.6.4-.7-.7-2.4-.7-2.4 1 0 1.6 1.5 1.6 1.5l.2-.8c-1-1-.7-1.8-.7-1.8q.8.8 1 .6v-.8c-.5-.1-.9-1.1-.9-1.1.6.2.8-.1.8-.1 0-2.5-2.5-3.7-2.5-3.7.3-.8.6-4 .3-6l-.6-4.2c-.9.7-1.7-.6-1.7-.6s3.6-6.7 3.5-8.4c-.4-4.7-1.8-6.6-3.7-7.2s-4 .6-4 .6c1 1 .6 1.7.6 1.7-1.5-.9-4.3-1.5-4.3-1.5q-.2.6-.4.6c-1.2-1.1-2.4-1-2.4-1v.5s-1.7-1-4.8-2c-3.2-.8-7.6-1.3-9-1.4s-.8-1.5-1.6-1.6c-.8 0-3.5-1.4-5.7-2.1s-2.4-1-2.4-1 0 1-.4 1.8c-.2-.6-1-.8-1-.8v-1.4c-.6-4.5-9.4-9.3-11.2-9-2 .2-5.4 0-5.4 0-.7 4.2-1.8 4.6-2 7.1m-99-110.7a13 13 0 0 1-3.9-1.9c2.9 2.2 4.6 5 4.6 5v-1.8c.1-1.4-.6-2.4-.6-2.4-2.3-.1-4.3-2.4-4.3-2.4 1.8 2.4 4.3 3.5 4.3 3.5m66.2 66.3c2.5.4 4.6-.5 4.6-.5-1.5-.2-1-1.4-3-1.7-2.2-.4-5.1 1.3-5.1 1.3s1 .5 3.5.9m-11.6-1.8c.8-.5 1.4.3 1.4.3 1.3.4 3.5-.4 3.5-.4-.2-.3 0-1.2 0-1.2-.7.3-2 0-2.5 0-.5.2-.8.5-1.4.1-.7-.4-1.5-.2-1.5-.2-.7.2-.3 2 .5 1.4M258 240c.6.5.7 1.5.7 1.5s-.7.3-.6 2.8c.2 2.5 1.2 1.8 1.2 1.8.4-.8 1.4-.2 1.4-.2-1 .5-1.3 1.6-1.3 1.6 2 1.2 1.8-3.7 1.8-3.7.4-.8 0-2.1 0-2.1 2.9-1 2.3-5 2.3-5-.6 2.4-2 2.8-2 2.8 1.6-1.8 1.3-5.9 1-7.5v-2.8l-1-1.1a5 5 0 0 1-1.4 1.8c-.6 4.3-2.7 9.3-2.7 9.3s0 .3.6.8m48.7 29.5s.7-1.8 2.1-2.4c0 0-1 0-1.3.4s-.1.4-.6.7c-.4.4-.2 1.3-.2 1.3m3.6-2.5s.6.2.8 0c.3-.4-.2-.8-.2-.8zm-2.3 3s.7-.7 2.3-1l1-1.3s-1 .6-1.7.2c0 0-1.3 1-1.6 2.1m1.5 1.6q.1-.2 1.9-1.3 1.4-.8 2.1-1c.6-.3.8-1 .8-1s-.9-.3-1.5.3-.5-.5-1 .4-.5.1-.8.7-.4.7-1 .9-1 0-1 .5c.2.6.5.5.5.5" clip-rule="evenodd"/><path fill="#fccf00" fill-rule="evenodd" d="M94.2 80.3s-1.6 1-3.2 5.4c-2 5.7-2.7 4.4-2.7 4.4S86 92.4 87 95.8c0 0 .5.3 0 .6-.5.4-.7-.4-.7-.4s-1.8-3.4 2-6.8q1.1-1.3 1-1.5c-.1-.2 2-4.5 2.5-5.6.3-1.2 1.5-2.7 2.6-3.1 0 0 2.2-.4-.2 1.3" clip-rule="evenodd"/><path fill="#fccf00" fill-rule="evenodd" d="M93.4 84.7s-.6 2.7-1.1 3.2-.8 0-.8 0-1.5 1.5-.1 4.7 2.6 4 2.6 4 0-1-.5-1.5-.7-3.8-.7-4.6.8-3.7 1.5-4.9-.9-1-.9-1m88.8 22.2s0 1.4 2 1.5c.7.1.8 1.3.8 1.3s.4.5 1.2-.8c.9-1.3 2.8-3 2.8-3h.7l1.5-1.6s1-.2 1.2-1.2-1.6-.2-1.6-.2-.8.7-1 1.5l-1.3.7-1.7.5-1.8 1.2-1.1.4v.3c-.1 0-.9.2-1.7-.6m8.6-25.1s1.8-1 3.7-1.1 3.7-.4 3.6-1.6-4.4-1-7.3 2.7m9.5.1s1.7-.4 3.7.2 4.6-2.3.3-2.6c-2.8-.2-2.2 1.4-4 2.4m1.4 21.6s.1-1.6-.4-2.4c0 0 1.1-1.5 3-3.1 2-1.6 4-2.7 4.1-1 .1 1.6.2 3.7-.7 4.5q-.2.2-.2-1.4c0-1.3-1.1-3.7-2.5-1 0 0 .7 1.4.7 2.2s0 .9-.3 1.2l-1 .7s.3-2.4-1.1-2.2c0 0 .4 2 .2 2.6 0 0 1.3.4-1 1.5s-3.6.1-.8-1.6m-31.4-.1s-.5.6-.2 1.2q.3.8.8.3c.4-.2 1-.8.7-1.2q-.6-.7-1.3-.3m49.7 14.5c6.2-4.1 7.5-6.8 8.2-9 .6-2.1 1.4-2.2 1.4-2.2 2 2.1 2 5 2 5s-4 2.1-10 6.5 0 6.6 0 6.6c-1.6 12 4.7 14.7 4.7 14.7-7.4-4.5-5.8-13.2-5.8-13.2-4-1-4.4-5-4.4-5a22 22 0 0 1-6.5 2.8c-2.9-4 .6-6.6.6-6.6-1.8 7.1 3.7 4.6 9.8.4m18-4.4c.3 1.1-.1 2.2.6 4a6 6 0 0 0 2.3 3c1 .8 1.3 1.2.7 2.1-.5 1-1.3.7-2.2.3s-1.4-.4-2.4-.5c-1.1 0-1.3-.3-2-1.2-.9-.8-.4-2.5.5-5q1.5-3.8 1.7-3.7.3-.8.8 1m68.9 127s2.8.5 4.4.5q2.3.1 2.9.7.6.3.8-1.1c.2-.8.3-1-.8-1-1-.2-1.6-.4-3-.4-1.5 0-2.1.3-3.4.5s-1.8-.3-1.8-.3-.7.8.9 1.1" clip-rule="evenodd"/><path fill="#fccf00" fill-rule="evenodd" d="M301.9 243.3s2 0 3.4.6 1.6-.1 2.8.1c1.3.2 3.3.7 3.6 1.1s0 .7.6.9c.4.1 3.2-1 3.2-1s.7-.6.2-1.2c0 0 2.5.1.8-3.1 0 0 .7-.3 1.3.7s.8 3.6-1.4 4.1c-1 .3-.7.9-.7.9s1.5.1 2.6-.8.7-3.3.7-3.3 1 .8.8 2.5c-.3 1.7-1.9 2.3-3 2.4-1.2 0-2 .7-2 .7l-.5-.3s-.7.4-.8 1c0 0-2 .2-2.5.4 0 0-.8-.6-1.4-1.5 0 0-2.4-1.2-4-1.4l-2-.3s1-.6 2.7-.3c1.6.3 3.5 1 4.7 2.1 0 0-.4-2.3-4.1-2.6l-1.5-.3a7 7 0 0 1-2.7-.7c-1.1-.5-.8-.7-.8-.7m-68.4-73.5s2-.4 3.8.6l1 .3c.6.5.4.5 1.5.6s2.3-1.4 2.6-1.7-.3-1.1.5-.7 1.5 1.4.3 2c-1 .5-2.5.9-2.5.9s-.6.4-.1 1c0 0-1 .3-2.5-1a9 9 0 0 0-4.6-2m2.5-9.4q-.7.5-.1 1.1.2.9.4 1 .4.3.7-.2t-.1-1.2-.6-.7q-.1-.2-.4 0" clip-rule="evenodd"/><path fill="#fccf00" d="M43.8 13.5h5.4v21.3h13v4.6H43.8zm29.4 0h6.2l9.1 26h-5.8L81 34h-9.6l-1.7 5.3H64zM73 29.6h6.6l-3.3-10.2zm45-1.4a10 10 0 0 1-6.5 1.9H106v9.3h-5.4v-26h11.1a9 9 0 0 1 6.1 2q2.3 2.1 2.3 6.3 0 4.5-2.2 6.5m-4.2-9.4q-1-.8-2.9-.8H106v7.6h5q1.8 0 2.8-1 1-.8 1-2.9t-1-2.9m10.8-5.3h5.4v21.3h12.9v4.6h-18.3zm29.4 0h6.1l9.2 26h-5.9l-1.7-5.4h-9.5l-1.8 5.3h-5.7zm-.3 16.1h6.6L157 19.4zm35.1-16.1v4.6h-7.7v21.3h-5.5V18.1h-7.8v-4.6zm7.9 0h6.2l9.2 26h-6l-1.6-5.4h-9.6l-1.8 5.3h-5.6zm-.3 16.1h6.6l-3.3-10.2zm44.3-15.5q1.4.7 2.4 1.9l1.3 2.1q.5 1.2.5 2.8 0 1.8-1 3.6t-3 2.5q1.8.8 2.5 2 .8 1.4.8 4.1V35l.1 2.4q.2 1 1 1.5v.6h-6L239 38l-.3-2.2v-2.4q0-2.6-.9-3.3-.7-.9-3-.9h-5.3v10.2h-5.3v-26h12.4q2.6.1 4 .7m-11 3.9v7h5.8q1.7 0 2.6-.5 1.5-.7 1.5-2.9 0-2.4-1.5-3.2-.7-.4-2.5-.4zm35-4.5h5.6l-8.8 25.9h-5.1l-8.8-25.9h5.8l5.6 19.7zm26.4 8.1a5 5 0 0 0-3.1-3.7q-1.3-.6-3-.6-3 0-5.1 2.3-2 2.4-2 7.1 0 4.8 2.1 6.8 2.3 2 5 2t4.5-1.6q1.6-1.6 2.1-4h-6v-4.4h10.8v14h-3.6l-.5-3.3q-1.5 1.8-2.8 2.6A10 10 0 0 1 284 40a11 11 0 0 1-8.4-3.6 14 14 0 0 1-3.5-9.8q0-6.4 3.5-10 3.5-3.9 9.2-3.9 5 0 7.9 2.5 3 2.6 3.4 6.3zm29.9-5.4a7 7 0 0 1 1.1 4q0 2.4-1.2 3.8a6 6 0 0 1-2 1.5q2.1.7 3 2.3 1 1.5 1 3.8A7.5 7.5 0 0 1 317 39q-1.6.3-3.6.3h-11.7v-26h12.5q4.8.1 6.8 2.8M306.8 18v5.7h6.3q1.7 0 2.7-.6t1-2.3q0-1.8-1.3-2.4-1.3-.4-3-.4zm0 10v7h6.3q1.6 0 2.6-.5 1.7-.9 1.7-3.3 0-2-1.7-2.8-.9-.3-2.6-.4zm35.5-14.5h6.2l-8.7 16.2v9.7h-5.4v-9.7l-9-16.2h6.4l5.4 11.3zm21.1 2.7q3.2-3.2 8-3.2 6.5 0 9.5 4.3a9 9 0 0 1 1.8 4.8h-5.5a8 8 0 0 0-1.3-2.8q-1.5-1.7-4.3-1.7-2.9 0-4.6 2.4a12 12 0 0 0-1.6 6.7q0 4.4 1.7 6.6a6 6 0 0 0 4.5 2.2q2.8 0 4.3-1.9.8-1 1.3-3h5.4q-.7 4.2-3.6 6.9-2.8 2.7-7.3 2.6a11 11 0 0 1-8.7-3.6 15 15 0 0 1-3.2-9.8q0-6.8 3.6-10.5m23.6-2h5.4v21.3h12.9v4.6H387zm34.5 0h5.6l-8.8 25.9h-5.1l-8.8-25.9h5.8l5.6 19.7zm28.2 2.8a7 7 0 0 1 1.2 4q0 2.3-1.2 3.7-.6.8-2 1.5 2 .8 3 2.3t1 3.8a7.5 7.5 0 0 1-5.9 7.5q-1.6.3-3.7.3h-11.6V14.2H443q4.7 0 6.7 2.8m-14 1.7v5.7h6.2q1.7 0 2.8-.6t1-2.3q0-1.8-1.4-2.4-1.2-.4-3-.4zm0 10v7h6.2q1.7 0 2.7-.5 1.7-.9 1.7-3.3 0-2-1.7-2.7-1-.5-2.6-.5z"/></svg>